<svg width="18" height="16" viewBox="0 0 18 16" fill="none" xmlns="http://www.w3.org/2000/svg">
<path fill-rule="evenodd" clip-rule="evenodd" d="M6.23541 1.1708C5.3146 1.17075 4.52869 1.79134 4.37722 2.63812L4.11449 4.1069C4.05727 4.42678 3.7604 4.66122 3.41255 4.66122H3.13956C2.0992 4.66122 1.25582 5.4475 1.25582 6.41743V13.073C1.25582 14.0429 2.0992 14.8292 3.13956 14.8292L14.86 14.8292C15.9003 14.8292 16.7437 14.043 16.7437 13.0731L16.7442 6.41753C16.7442 5.44757 15.9008 4.66122 14.8604 4.66122H14.6081C14.2589 4.66122 13.9613 4.42496 13.9056 4.10353L13.6534 2.64736C13.506 1.79656 12.7182 1.17117 11.7938 1.17112L6.23541 1.1708ZM3.13851 2.44553C3.39096 1.03422 4.70079 -8.62028e-05 6.23549 5.38859e-09L11.7939 0.000312271C13.3346 0.000398805 14.6475 1.04272 14.8931 2.46072L15.0726 3.497C16.7077 3.59873 18.0001 4.86747 18 6.41761L17.9996 13.0732C17.9995 14.6896 16.5939 16 14.86 16L3.13956 16C1.40563 16 0 14.6895 0 13.073V6.41743C0 4.86002 1.30468 3.5867 2.95066 3.49563L3.13851 2.44553Z" fill="#151A40"/>
<path fill-rule="evenodd" clip-rule="evenodd" d="M9 6.60933C7.90758 6.60933 7.02199 7.44283 7.02199 8.47099C7.02199 9.49916 7.90758 10.3326 9 10.3326C10.0924 10.3326 10.978 9.49916 10.978 8.47099C10.978 7.44283 10.0924 6.60933 9 6.60933ZM6 8.47099C6 6.9116 7.34315 5.64746 9 5.64746C10.6569 5.64746 12 6.9116 12 8.47099C12 10.0304 10.6569 11.2945 9 11.2945C7.34315 11.2945 6 10.0304 6 8.47099Z" fill="#151A40"/>
</svg>
