<svg width="95" height="71" viewBox="0 0 95 71" fill="none" xmlns="http://www.w3.org/2000/svg">
<path fill-rule="evenodd" clip-rule="evenodd" d="M19.4957 9.91895C19.1809 10.1448 12.1525 18.4768 11.7691 18.9074C10.905 19.8783 10.1167 20.9723 9.25253 22.0367C6.54129 25.3768 2.46789 31.1018 0.870252 36.0784C-1.16361 42.4135 0.521191 48.251 4.32635 53.2617C4.75252 53.8231 6.55353 55.6256 7.10814 56.0468C9.51596 57.8747 11.4849 59.063 14.5129 59.8439C19.4568 61.1189 24.0103 60.5599 28.4505 58.3358C29.7945 57.6623 30.703 56.9201 31.8039 56.1326L33.277 54.7836C35.6508 52.3954 37.433 49.4079 38.3764 45.8231C39.2952 42.3331 39.1995 39.5173 38.1401 36.1448C36.1805 29.9076 31.0238 23.659 27.2901 19.0068L19.4961 9.91916L19.4957 9.91895ZM19.4679 14.3143C18.8508 15.0336 18.2357 15.7551 17.6213 16.4768C16.3954 17.917 15.1774 19.4137 13.9223 20.8239C13.0653 21.7866 12.3039 22.8517 11.4904 23.8537C8.59874 27.4157 5.02557 32.5647 3.61469 36.9598C1.90346 42.2897 3.31586 47.1654 6.61993 51.5162C7.09372 52.1202 8.25099 53.2788 8.85388 53.7534C10.9557 55.3491 12.6468 56.386 15.2324 57.0529C19.426 58.1344 23.2969 57.6936 27.1591 55.7589C28.1857 55.2447 29.0599 54.5586 29.9828 53.8919L31.2783 52.7054C33.3873 50.5671 34.8242 47.9939 35.5887 45.0896C36.3583 42.1665 36.2941 39.8871 35.39 37.009C33.5935 31.291 28.7884 25.4784 25.0715 20.8477L19.4684 14.3145L19.4679 14.3143Z" fill="#386FB2"/>
<path fill-rule="evenodd" clip-rule="evenodd" d="M75.4904 9.91895C75.1756 10.1448 68.1472 18.4768 67.764 18.9074C66.8999 19.8783 66.1116 20.9723 65.2474 22.0367C62.536 25.3768 58.4628 31.1018 56.8652 36.0784C54.8313 42.4135 56.5159 48.251 60.321 53.2617C60.7472 53.8231 62.5482 55.6256 63.1028 56.0468C65.5107 57.8747 67.4796 59.063 70.5076 59.8439C75.4517 61.1189 80.005 60.5599 84.4452 58.3358C85.7892 57.6623 86.6977 56.9201 87.7988 56.1326L89.2719 54.7836C91.6457 52.3954 93.4277 49.4079 94.3711 45.8231C95.2899 42.3331 95.1942 39.5173 94.1348 36.1448C92.1752 29.9076 87.0186 23.659 83.2848 19.0068L75.4908 9.91916L75.4904 9.91895ZM75.4626 14.3143C74.8455 15.0336 74.2306 15.7551 73.6162 16.4768C72.3901 17.917 71.1721 19.4137 69.9172 20.8239C69.0603 21.7866 68.2986 22.8517 67.4853 23.8537C64.5937 27.4157 61.0205 32.5647 59.6096 36.9598C57.8984 42.2897 59.3108 47.1654 62.6148 51.5162C63.0886 52.1202 64.2459 53.2788 64.8488 53.7534C66.9506 55.3491 68.6417 56.386 71.2276 57.0529C75.4211 58.1344 79.292 57.6936 83.1542 55.7589C84.1808 55.2447 85.055 54.5586 85.9779 53.8919L87.2735 52.7054C89.3827 50.5671 90.8193 47.9939 91.5839 45.0896C92.3532 42.1665 92.2892 39.8871 91.3849 37.009C89.5887 31.291 84.7833 25.4784 81.0664 20.8477L75.4631 14.3145L75.4626 14.3143Z" fill="#386FB2"/>
<path fill-rule="evenodd" clip-rule="evenodd" d="M47.4905 0C47.0521 0.314548 37.2682 11.9133 36.7347 12.5127C35.5318 13.8644 34.4344 15.3869 33.2312 16.8692C29.4569 21.5188 23.7867 29.4885 21.5626 36.4164C18.7312 45.2355 21.0766 53.3616 26.3734 60.3367C26.9667 61.118 29.4739 63.6272 30.2459 64.2135C33.5976 66.7583 36.3387 68.4121 40.5539 69.4992C47.4362 71.2742 53.775 70.4962 59.9558 67.3998C61.827 66.4623 63.0917 65.4293 64.6245 64.333L66.6751 62.4546C69.9796 59.13 72.4604 54.9715 73.7739 49.9813C75.0528 45.1228 74.9196 41.2032 73.4447 36.5084C70.7171 27.8257 63.5384 19.1274 58.3407 12.651L47.4908 0.000218436L47.4905 0Z" fill="#143666"/>
<path d="M30.9663 42.2435C31.0795 42.8628 31.2959 43.3422 31.6156 43.6818C31.9352 44.0147 32.4013 44.1812 33.0139 44.1812C33.7197 44.1812 34.2558 43.9348 34.622 43.4421C34.9949 42.9427 35.1813 42.3167 35.1813 41.5643C35.1813 40.8252 35.0082 40.2026 34.662 39.6965C34.3157 39.1838 33.7763 38.9274 33.0439 38.9274C32.6976 38.9274 32.398 38.9707 32.1449 39.0573C31.6988 39.2171 31.3625 39.5134 31.1361 39.9462L28.5792 39.8264L29.598 31.8258H37.5785V34.243H31.6555L31.1361 37.4092C31.5756 37.1229 31.9185 36.9331 32.1649 36.8399C32.5778 36.6867 33.0805 36.6102 33.6731 36.6102C34.8717 36.6102 35.9171 37.013 36.8094 37.8187C37.7017 38.6244 38.1478 39.7964 38.1478 41.3346C38.1478 42.673 37.7183 43.8682 36.8593 44.9203C36.0004 45.9724 34.7152 46.4984 33.0039 46.4984C31.6256 46.4984 30.4936 46.1289 29.6079 45.3898C28.7223 44.6506 28.2296 43.6019 28.1297 42.2435H30.9663ZM42.5226 39.0173C42.5226 40.682 42.6591 41.9572 42.9322 42.8428C43.2052 43.7217 43.7645 44.1612 44.6102 44.1612C45.4558 44.1612 46.0085 43.7217 46.2682 42.8428C46.5345 41.9572 46.6677 40.682 46.6677 39.0173C46.6677 37.2727 46.5345 35.9809 46.2682 35.1419C46.0085 34.3029 45.4558 33.8834 44.6102 33.8834C43.7645 33.8834 43.2052 34.3029 42.9322 35.1419C42.6591 35.9809 42.5226 37.2727 42.5226 39.0173ZM44.6102 31.5362C46.4546 31.5362 47.7464 32.1854 48.4856 33.4839C49.2314 34.7823 49.6042 36.6268 49.6042 39.0173C49.6042 41.4078 49.2314 43.249 48.4856 44.5408C47.7464 45.8326 46.4546 46.4785 44.6102 46.4785C42.7657 46.4785 41.4705 45.8326 40.7248 44.5408C39.9856 43.249 39.6161 41.4078 39.6161 39.0173C39.6161 36.6268 39.9856 34.7823 40.7248 33.4839C41.4705 32.1854 42.7657 31.5362 44.6102 31.5362ZM53.9091 39.0173C53.9091 40.682 54.0456 41.9572 54.3187 42.8428C54.5917 43.7217 55.151 44.1612 55.9967 44.1612C56.8423 44.1612 57.395 43.7217 57.6547 42.8428C57.9211 41.9572 58.0542 40.682 58.0542 39.0173C58.0542 37.2727 57.9211 35.9809 57.6547 35.1419C57.395 34.3029 56.8423 33.8834 55.9967 33.8834C55.151 33.8834 54.5917 34.3029 54.3187 35.1419C54.0456 35.9809 53.9091 37.2727 53.9091 39.0173ZM55.9967 31.5362C57.8411 31.5362 59.133 32.1854 59.8721 33.4839C60.6179 34.7823 60.9908 36.6268 60.9908 39.0173C60.9908 41.4078 60.6179 43.249 59.8721 44.5408C59.133 45.8326 57.8411 46.4785 55.9967 46.4785C54.1522 46.4785 52.8571 45.8326 52.1113 44.5408C51.3721 43.249 51.0026 41.4078 51.0026 39.0173C51.0026 36.6268 51.3721 34.7823 52.1113 33.4839C52.8571 32.1854 54.1522 31.5362 55.9967 31.5362Z" fill="white"/>
</svg>
