<svg width="59" height="79" viewBox="0 0 59 79" fill="none" xmlns="http://www.w3.org/2000/svg">
<path fill-rule="evenodd" clip-rule="evenodd" d="M39.3328 15.6128C39.3328 17.075 38.7383 18.2885 37.9905 19.2394L37.5215 19.7637C37.2777 20.006 36.6767 20.5515 36.5176 20.7888C36.5494 20.9242 37.0812 21.9493 37.2459 22.3791C37.9073 24.108 37.7393 26.3988 36.8104 27.9539C36.3774 28.6789 35.6059 29.4374 34.7349 29.6045C34.2334 29.7008 34.3655 29.4773 34.3655 31.0977C34.3655 32.3903 34.6061 33.5149 33.7506 34.2097C33.3168 34.562 32.8258 34.5759 32.2117 34.5759H29.4374V39.5032H18.631C18.1613 39.5024 17.7731 39.5448 17.265 39.5448C16.3614 39.5448 15.351 39.5456 14.7818 39.8767C14.5477 40.0129 14.1914 40.3049 14.0038 40.5063C13.7771 40.7501 13.6075 41.0584 13.455 41.365C13.017 42.2458 12.9999 43.3687 12.9999 44.4297C12.9999 44.769 13.0325 45.7704 13.1239 45.9621C13.4126 46.1007 19.922 46.086 20.9079 46.086C22.2405 46.086 23.4531 46.1276 24.8004 46.1276C31.8529 46.1276 38.9055 46.1276 45.958 46.1276C45.958 45.2893 45.8724 44.1981 45.8748 43.3948C45.8781 42.5386 45.834 41.7198 45.3782 41.0763C44.9606 40.4875 44.5757 40.0879 43.8352 39.8041C42.8322 39.4184 40.5732 39.5032 39.3328 39.5032V36.6465C39.46 36.6122 40.1866 36.0993 40.3563 35.9729C40.8496 35.6034 41.8307 34.7936 42.1716 34.3516C42.585 33.8158 42.9985 33.4081 43.4479 32.7296C44.5627 31.0464 45.529 29.0247 45.7093 26.9174C45.7672 26.2446 45.8324 25.4446 45.8324 24.7221C45.8324 24.289 45.7933 24.006 45.7925 23.5616L45.6962 22.4158C45.463 20.5515 44.6931 18.5764 43.6632 17.0375C43.3696 16.5996 42.7123 15.6585 42.3445 15.2915C42.2882 15.2352 42.2523 15.2075 42.2009 15.1455C41.6912 14.5363 40.7004 13.6906 40.0276 13.2609C39.8066 13.1198 38.682 12.4054 38.421 12.3834C38.6119 13.2013 39.332 13.8994 39.332 15.6128H39.3328Z" fill="#143666"/>
<path fill-rule="evenodd" clip-rule="evenodd" d="M19.5833 1.41159C19.5833 1.93677 19.5775 2.59734 19.8842 2.97411C20.15 3.30113 20.4632 3.3574 21.0324 3.3574C21.2045 3.61428 21.202 3.55312 21.1972 4.062C21.1931 4.46405 21.2869 5.01533 21.2151 5.4867C21.1499 5.92055 21.3333 6.39518 20.7943 6.92934C20.5757 7.14627 20.3898 7.3322 20.1729 7.54994C20.0603 7.66248 19.5833 8.06372 19.5833 8.20235V18.0154C19.5833 18.1402 20.0913 18.5447 20.2976 18.7502C20.5553 19.0079 20.7812 19.2419 21.043 19.4956C21.2485 19.6937 21.2453 19.6228 21.2412 20.002L21.2363 24.4368C21.2404 24.6374 21.2257 24.6047 21.3293 24.7165C21.388 24.7793 21.4524 24.8331 21.5193 24.8991C21.777 25.156 22.0257 25.3656 22.2508 25.6576C22.3503 25.7864 22.8869 26.3793 23.0198 26.3793H25.0904C26.6382 26.3793 26.7174 25.501 27.634 24.8241C27.9308 24.6047 27.8232 24.4441 27.8232 23.6049C27.8232 22.787 27.7457 20.3062 27.9871 19.6701C28.2464 18.9875 28.8091 19.224 28.3614 18.0978C28.2791 17.8915 28.2024 17.69 28.1282 17.4617C27.5581 15.7132 27.8843 13.6948 28.9714 12.2481C29.4444 11.6185 29.4795 11.13 29.4795 10.1898V8.20235C29.4795 8.07187 29.075 7.73343 28.9731 7.63231C28.2717 6.93831 27.8232 6.84126 27.8232 5.55275C27.8232 4.83755 27.811 4.50564 27.8623 3.81164C27.8876 3.47646 27.8941 3.56046 28.0295 3.35821C29.1468 3.35821 29.4787 3.06626 29.4787 1.78509C29.4787 1.35776 29.4183 0.627879 29.2764 0.372624C29.1696 0.180978 29.0424 0.206259 28.6697 0.150804C28.4748 0.122261 28.0866 0.0871929 27.9072 0.0855619C26.5909 0.0725137 24.2292 -0.0701992 22.8518 0.0439724C22.6325 0.0619137 22.3356 0.0464189 22.1089 0.0464189C21.7329 0.0447879 20.2218 0.146726 19.9633 0.219307C19.7561 0.278024 19.7088 0.464776 19.6607 0.703721C19.6183 0.914939 19.5833 1.15062 19.5833 1.41322V1.41159Z" fill="#143666"/>
<path fill-rule="evenodd" clip-rule="evenodd" d="M16.2697 32.9623H32.7488V29.6497H16.2697V32.9623Z" fill="#143666"/>
<path fill-rule="evenodd" clip-rule="evenodd" d="M29.3956 15.1581C29.3956 19.0048 34.309 20.971 36.8306 17.625C38.933 14.8359 36.621 11.1009 33.5775 11.1009C31.3846 11.1009 29.3956 12.9382 29.3956 15.1589V15.1581Z" fill="#143666"/>
<path d="M3.08984 59H0.609375V53.2422H3.08984C3.44661 53.2474 3.74349 53.2891 3.98047 53.3672C4.38411 53.5 4.71094 53.7435 4.96094 54.0977C5.16146 54.3841 5.29818 54.694 5.37109 55.0273C5.44401 55.3607 5.48047 55.6784 5.48047 55.9805C5.48047 56.7461 5.32682 57.3945 5.01953 57.9258C4.60286 58.6419 3.95964 59 3.08984 59ZM3.98438 54.7109C3.79948 54.3984 3.43359 54.2422 2.88672 54.2422H1.77734V58H2.88672C3.45443 58 3.85026 57.7201 4.07422 57.1602C4.19661 56.8529 4.25781 56.487 4.25781 56.0625C4.25781 55.4766 4.16667 55.026 3.98438 54.7109ZM6.29688 53.2422H7.49219V59H6.29688V53.2422ZM13.2734 59H12.0703L9.71875 54.9102V59H8.59766V53.2422H9.85938L12.1523 57.2617V53.2422H13.2734V59ZM20.6328 56.4844H17.8359V57.9648H21.0234V59H16.6602V53.2422H20.8828V54.2617H17.8359V55.4844H20.6328V56.4844ZM26.6172 59H25.4141L23.0625 54.9102V59H21.9414V53.2422H23.2031L25.4961 57.2617V53.2422H26.6172V59ZM29.875 53.2422H31.0703V59H29.875V53.2422ZM34.2852 58.168C34.569 58.168 34.7995 58.1367 34.9766 58.0742C35.3125 57.9544 35.4805 57.7318 35.4805 57.4062C35.4805 57.2161 35.3971 57.069 35.2305 56.9648C35.0638 56.8633 34.8021 56.7734 34.4453 56.6953L33.8359 56.5586C33.237 56.4232 32.8229 56.276 32.5938 56.1172C32.2057 55.8516 32.0117 55.4362 32.0117 54.8711C32.0117 54.3555 32.1992 53.9271 32.5742 53.5859C32.9492 53.2448 33.5 53.0742 34.2266 53.0742C34.8333 53.0742 35.3503 53.2357 35.7773 53.5586C36.207 53.8789 36.4323 54.3451 36.4531 54.957H35.2969C35.276 54.6107 35.125 54.3646 34.8438 54.2188C34.6562 54.1224 34.4232 54.0742 34.1445 54.0742C33.8346 54.0742 33.5872 54.1367 33.4023 54.2617C33.2174 54.3867 33.125 54.5612 33.125 54.7852C33.125 54.9909 33.2161 55.1445 33.3984 55.2461C33.5156 55.3138 33.7656 55.3932 34.1484 55.4844L35.1406 55.7227C35.5755 55.8268 35.9036 55.9661 36.125 56.1406C36.4688 56.4115 36.6406 56.8034 36.6406 57.3164C36.6406 57.8424 36.4388 58.2799 36.0352 58.6289C35.6341 58.9753 35.0664 59.1484 34.332 59.1484C33.582 59.1484 32.9922 58.9779 32.5625 58.6367C32.1328 58.293 31.918 57.8216 31.918 57.2227H33.0664C33.1029 57.4857 33.1745 57.6823 33.2812 57.8125C33.4766 58.0495 33.8112 58.168 34.2852 58.168ZM40.0781 59.1602C39.2552 59.1602 38.6263 58.9362 38.1914 58.4883C37.6081 57.9388 37.3164 57.1471 37.3164 56.1133C37.3164 55.0586 37.6081 54.2669 38.1914 53.7383C38.6263 53.2904 39.2552 53.0664 40.0781 53.0664C40.901 53.0664 41.5299 53.2904 41.9648 53.7383C42.5456 54.2669 42.8359 55.0586 42.8359 56.1133C42.8359 57.1471 42.5456 57.9388 41.9648 58.4883C41.5299 58.9362 40.901 59.1602 40.0781 59.1602ZM41.2148 57.6133C41.4935 57.2617 41.6328 56.7617 41.6328 56.1133C41.6328 55.4674 41.4922 54.9688 41.2109 54.6172C40.9323 54.263 40.5547 54.0859 40.0781 54.0859C39.6016 54.0859 39.2214 54.2617 38.9375 54.6133C38.6536 54.9648 38.5117 55.4648 38.5117 56.1133C38.5117 56.7617 38.6536 57.2617 38.9375 57.6133C39.2214 57.9648 39.6016 58.1406 40.0781 58.1406C40.5547 58.1406 40.9336 57.9648 41.2148 57.6133ZM42.7109 59L44.9414 53.0664H45.8672L43.6289 59H42.7109ZM45.8906 53.2422H47.0859V59H45.8906V53.2422ZM52.2188 56.4844H49.4219V57.9648H52.6094V59H48.2461V53.2422H52.4688V54.2617H49.4219V55.4844H52.2188V56.4844ZM57.6094 58.5703C57.1797 58.9635 56.6302 59.1602 55.9609 59.1602C55.1328 59.1602 54.4818 58.8945 54.0078 58.3633C53.5339 57.8294 53.2969 57.0977 53.2969 56.168C53.2969 55.1628 53.5664 54.388 54.1055 53.8438C54.5742 53.3698 55.1706 53.1328 55.8945 53.1328C56.8633 53.1328 57.5716 53.4505 58.0195 54.0859C58.2669 54.4427 58.3997 54.8008 58.418 55.1602H57.2148C57.1367 54.8841 57.0365 54.6758 56.9141 54.5352C56.6953 54.2852 56.3711 54.1602 55.9414 54.1602C55.5039 54.1602 55.1589 54.3372 54.9062 54.6914C54.6536 55.043 54.5273 55.5417 54.5273 56.1875C54.5273 56.8333 54.6602 57.3177 54.9258 57.6406C55.194 57.9609 55.5339 58.1211 55.9453 58.1211C56.3672 58.1211 56.6888 57.9831 56.9102 57.707C57.0326 57.5586 57.1341 57.3359 57.2148 57.0391H58.4062C58.3021 57.6667 58.0365 58.1771 57.6094 58.5703Z" fill="#143666"/>
<path d="M13.0547 76H10.7734V68.1875H8.10938V66.6719C8.8125 66.6406 9.30469 66.5938 9.58594 66.5312C10.0339 66.4323 10.3984 66.2344 10.6797 65.9375C10.8724 65.7344 11.0182 65.4635 11.1172 65.125C11.1745 64.9219 11.2031 64.7708 11.2031 64.6719H13.0547V76ZM22.9531 68.3125C22.3594 69.1562 21.862 70.026 21.4609 70.9219C21.1432 71.625 20.8568 72.4844 20.6016 73.5C20.3464 74.5156 20.2188 75.349 20.2188 76H17.9062C17.974 73.9688 18.6406 71.8568 19.9062 69.6641C20.724 68.3047 21.4089 67.3568 21.9609 66.8203H16.3125L16.3438 64.8203H24.3438V66.5625C24.0104 66.8906 23.5469 67.474 22.9531 68.3125ZM29.2188 76.2812C27.776 76.2812 26.763 75.776 26.1797 74.7656C25.6016 73.7552 25.3125 72.3151 25.3125 70.4453C25.3125 68.5755 25.6016 67.1328 26.1797 66.1172C26.763 65.1016 27.776 64.5938 29.2188 64.5938C30.6615 64.5938 31.6745 65.1016 32.2578 66.1172C32.8359 67.1328 33.125 68.5755 33.125 70.4453C33.125 72.3151 32.8333 73.7552 32.25 74.7656C31.6719 75.776 30.6615 76.2812 29.2188 76.2812ZM30.5234 73.4297C30.7266 72.7422 30.8281 71.7474 30.8281 70.4453C30.8281 69.0807 30.724 68.0703 30.5156 67.4141C30.3125 66.7578 29.8802 66.4297 29.2188 66.4297C28.5573 66.4297 28.1198 66.7578 27.9062 67.4141C27.6927 68.0703 27.5859 69.0807 27.5859 70.4453C27.5859 71.7474 27.6927 72.7448 27.9062 73.4375C28.1198 74.125 28.5573 74.4688 29.2188 74.4688C29.8802 74.4688 30.3151 74.1224 30.5234 73.4297ZM39.2812 66.9766C39.0156 66.6589 38.6354 66.5 38.1406 66.5C37.4635 66.5 37.0026 66.7526 36.7578 67.2578C36.6172 67.5495 36.5339 68.013 36.5078 68.6484H34.3438C34.3802 67.6849 34.5547 66.9062 34.8672 66.3125C35.4609 65.1823 36.5156 64.6172 38.0312 64.6172C39.2292 64.6172 40.1823 64.9505 40.8906 65.6172C41.599 66.2786 41.9531 67.1562 41.9531 68.25C41.9531 69.0885 41.7031 69.8333 41.2031 70.4844C40.875 70.9167 40.3359 71.3984 39.5859 71.9297L38.6953 72.5625C38.138 72.9583 37.7552 73.2448 37.5469 73.4219C37.3438 73.599 37.1719 73.8047 37.0312 74.0391H41.9766V76H34.2188C34.2396 75.1875 34.4141 74.4453 34.7422 73.7734C35.0599 73.0182 35.8099 72.2188 36.9922 71.375C38.0182 70.6406 38.6823 70.1146 38.9844 69.7969C39.4479 69.3021 39.6797 68.7604 39.6797 68.1719C39.6797 67.6927 39.5469 67.2943 39.2812 66.9766ZM46.8906 70.375C46.6198 70.375 46.3854 70.4089 46.1875 70.4766C45.8385 70.6016 45.5755 70.8333 45.3984 71.1719L43.3984 71.0781L44.1953 64.8203H50.4375V66.7109H45.8047L45.3984 69.1875C45.7422 68.9635 46.0104 68.8151 46.2031 68.7422C46.526 68.6224 46.9193 68.5625 47.3828 68.5625C48.3203 68.5625 49.138 68.8776 49.8359 69.5078C50.5339 70.138 50.8828 71.0547 50.8828 72.2578C50.8828 73.3047 50.5469 74.2396 49.875 75.0625C49.2031 75.8854 48.1979 76.2969 46.8594 76.2969C45.7812 76.2969 44.8958 76.0078 44.2031 75.4297C43.5104 74.8516 43.125 74.0312 43.0469 72.9688H45.2656C45.3542 73.4531 45.5234 73.8281 45.7734 74.0938C46.0234 74.3542 46.388 74.4844 46.8672 74.4844C47.4193 74.4844 47.8385 74.2917 48.125 73.9062C48.4167 73.5156 48.5625 73.026 48.5625 72.4375C48.5625 71.8594 48.4271 71.3724 48.1562 70.9766C47.8854 70.5755 47.4635 70.375 46.8906 70.375Z" fill="#143666"/>
</svg>
