<svg width="66" height="85" viewBox="0 0 66 85" fill="none" xmlns="http://www.w3.org/2000/svg">
<g clip-path="url(#clip0_1_81)">
<path fill-rule="evenodd" clip-rule="evenodd" d="M32.7518 0C32.2226 0.380029 20.4156 14.3767 19.7721 15.1C18.3205 16.731 16.9961 18.5684 15.5445 20.3576C10.9899 25.9683 4.14692 35.5865 1.46307 43.9471C-1.95392 54.5896 0.87672 64.3961 7.2687 72.8138C7.98472 73.7565 11.0103 76.7845 11.9416 77.4924C15.9865 80.5636 19.2942 82.5592 24.3814 83.8713C32.6866 86.0137 40.3361 85.0742 47.7956 81.3375C50.0537 80.2064 51.5796 78.9595 53.4291 77.6367L55.9034 75.3704C59.8913 71.3581 62.885 66.3394 64.4704 60.3177C66.0133 54.455 65.8526 49.7242 64.0732 44.0588C60.7818 33.5812 52.1186 23.0839 45.8457 15.268L32.7526 0.000815512L32.7518 0Z" fill="white"/>
<path fill-rule="evenodd" clip-rule="evenodd" d="M22.9086 39.1837C22.9086 40.6459 23.5031 41.8593 24.2509 42.8102L24.7198 43.3346C24.9637 43.5768 25.5647 44.1224 25.7237 44.3597C25.6919 44.4951 25.1602 45.5202 24.9955 45.95C24.3341 47.6788 24.5021 49.9696 25.431 51.5248C25.864 52.2498 26.6355 53.0082 27.5064 53.1754C28.008 53.2716 27.8759 53.0482 27.8759 54.6686C27.8759 55.9612 27.6353 57.0858 28.4908 57.7806C28.9246 58.1329 29.4156 58.1468 30.0296 58.1468H32.804V63.0741H43.6104C44.0801 63.0733 44.4683 63.1157 44.9763 63.1157C45.8799 63.1157 46.8904 63.1165 47.4596 63.4476C47.6936 63.5838 48.05 63.8757 48.2376 64.0772C48.4643 64.321 48.6339 64.6293 48.7864 64.9359C49.2243 65.8166 49.2415 66.9396 49.2415 68.0006C49.2415 68.3398 49.2088 69.3413 49.1175 69.5329C48.8288 69.6716 42.3194 69.6569 41.3334 69.6569C40.0009 69.6569 38.7882 69.6985 37.441 69.6985C30.3885 69.6985 23.3359 69.6985 16.2834 69.6985C16.2834 68.8601 16.369 67.769 16.3665 66.9657C16.3633 66.1094 16.4073 65.2906 16.8632 64.6472C17.2807 64.0584 17.6657 63.6588 18.4061 63.375C19.4092 62.9893 21.6682 63.0741 22.9086 63.0741V60.2173C22.7814 60.1831 22.0547 59.6701 21.8851 59.5437C21.3917 59.1743 20.4107 58.3645 20.0698 57.9225C19.6563 57.3867 19.2429 56.9789 18.7935 56.3004C17.6787 54.6172 16.7123 52.5956 16.5321 50.4883C16.4742 49.8155 16.409 49.0155 16.409 48.2929C16.409 47.8599 16.4481 47.5769 16.4489 47.1324L16.5451 45.9867C16.7784 44.1224 17.5482 42.1472 18.5782 40.6084C18.8718 40.1704 19.5291 39.2293 19.8969 38.8623C19.9532 38.8061 19.9891 38.7783 20.0404 38.7164C20.5501 38.1072 21.541 37.2615 22.2138 36.8317C22.4348 36.6906 23.5594 35.9762 23.8203 35.9542C23.6295 36.7722 22.9094 37.4703 22.9094 39.1837H22.9086Z" fill="#386FB2"/>
<path fill-rule="evenodd" clip-rule="evenodd" d="M42.658 24.9824C42.658 25.5076 42.6638 26.1681 42.3571 26.5449C42.0913 26.8719 41.7781 26.9282 41.2089 26.9282C41.0368 27.1851 41.0392 27.1239 41.0441 27.6328C41.0482 28.0348 40.9544 28.5861 41.0262 29.0575C41.0914 29.4914 40.908 29.966 41.447 30.5001C41.6656 30.7171 41.8515 30.903 42.0684 31.1207C42.181 31.2333 42.658 31.6345 42.658 31.7732V41.5862C42.658 41.711 42.15 42.1155 41.9437 42.321C41.686 42.5787 41.4601 42.8127 41.1983 43.0664C40.9928 43.2645 40.996 43.1936 41.0001 43.5728L41.005 48.0076C41.0009 48.2082 41.0156 48.1755 40.912 48.2873C40.8533 48.3501 40.7889 48.4039 40.722 48.4699C40.4643 48.7268 40.2156 48.9364 39.9905 49.2284C39.891 49.3572 39.3544 49.9501 39.2215 49.9501H37.1509C35.603 49.9501 35.5239 49.0718 34.6073 48.3949C34.3105 48.1755 34.4181 48.0149 34.4181 47.1757C34.4181 46.3578 34.4956 43.877 34.2542 43.2409C33.9949 42.5583 33.4322 42.7948 33.8799 41.6686C33.9622 41.4623 34.0389 41.2608 34.1131 41.0325C34.6831 39.284 34.3569 37.2656 33.2699 35.8189C32.7969 35.1893 32.7618 34.7008 32.7618 33.7606V31.7732C32.7618 31.6427 33.1663 31.3042 33.2682 31.2031C33.9696 30.5091 34.4181 30.4121 34.4181 29.1236C34.4181 28.4084 34.4303 28.0764 34.379 27.3824C34.3537 27.0473 34.3472 27.1313 34.2118 26.929C33.0945 26.929 32.7626 26.6371 32.7626 25.3559C32.7626 24.9286 32.823 24.1987 32.9649 23.9434C33.0717 23.7518 33.1989 23.7771 33.5716 23.7216C33.7665 23.6931 34.1547 23.658 34.3341 23.6564C35.6503 23.6433 38.0121 23.5006 39.3895 23.6148C39.6088 23.6327 39.9057 23.6172 40.1324 23.6172C40.5084 23.6156 42.0195 23.7175 42.278 23.7901C42.4852 23.8488 42.5325 24.0356 42.5806 24.2745C42.623 24.4857 42.658 24.7214 42.658 24.984V24.9824Z" fill="#386FB2"/>
<path fill-rule="evenodd" clip-rule="evenodd" d="M45.9717 56.5331H29.4927V53.2205H45.9717V56.5331Z" fill="#386FB2"/>
<path fill-rule="evenodd" clip-rule="evenodd" d="M32.8458 38.7289C32.8458 42.5757 27.9324 44.5419 25.4108 41.1958C23.3084 38.4068 25.6204 34.6718 28.6639 34.6718C30.8568 34.6718 32.8458 36.5091 32.8458 38.7297V38.7289Z" fill="#386FB2"/>
</g>
<defs>
<clipPath id="clip0_1_81">
<rect width="65.5259" height="85" fill="white"/>
</clipPath>
</defs>
</svg>
