<svg width="65" height="111" viewBox="0 0 65 111" fill="none" xmlns="http://www.w3.org/2000/svg">
<g clip-path="url(#clip0_1_90)">
<path fill-rule="evenodd" clip-rule="evenodd" d="M32.4887 0.00012207C31.9637 0.377098 20.2515 14.2613 19.6133 14.9788C18.1733 16.5968 16.8596 18.4194 15.4196 20.1942C10.9016 25.7599 4.11356 35.3008 1.45127 43.5942C-1.93827 54.152 0.869632 63.8789 7.21027 72.229C7.92053 73.1642 10.9218 76.1678 11.8456 76.87C15.8581 79.9166 19.1392 81.8961 24.1855 83.1977C32.424 85.3228 40.012 84.3909 47.4116 80.6843C49.6516 79.5622 51.1651 78.3253 52.9999 77.0132L55.4543 74.7651C59.4101 70.785 62.3798 65.8067 63.9524 59.8333C65.4829 54.0177 65.3236 49.3249 63.5584 43.705C60.2935 33.3107 51.6999 22.8986 45.4773 15.1455L32.4887 0.000931031V0.00012207Z" fill="white"/>
<path fill-rule="evenodd" clip-rule="evenodd" d="M40.4569 68.9535L46.6204 71.6182L44.6563 60.7506L54.1332 57.2009L46.3235 50.2746L51.5243 40.8065L41.5231 41.0622L40.0136 30.1056L32.5008 37.4234L24.9872 30.1056L23.4777 41.0622L13.4765 40.8065L18.6773 50.2746L10.8676 57.2009L20.3446 60.7506L18.3804 71.6182L24.5439 68.9535L19.1408 110.378L32.5008 96.5585L45.8608 110.378L40.4577 68.9535H40.4569ZM32.5 42.8314C38.5081 42.8314 43.3781 47.7013 43.3781 53.7095C43.3781 59.7176 38.5081 64.5876 32.5 64.5876C26.4918 64.5876 21.6219 59.7176 21.6219 53.7095C21.6219 47.7013 26.4918 42.8314 32.5 42.8314Z" fill="#386FB2"/>
<path fill-rule="evenodd" clip-rule="evenodd" d="M32.5 46.4037L34.9908 50.679L39.8268 51.7275L36.5311 55.4179L37.0286 60.3413L32.5 58.3464L27.9714 60.3413L28.469 55.4179L25.1724 51.7275L30.0084 50.679L32.5 46.4037Z" fill="#386FB2"/>
</g>
<defs>
<clipPath id="clip0_1_90">
<rect width="65" height="110.378" fill="white"/>
</clipPath>
</defs>
</svg>
