<svg width="61" height="60" viewBox="0 0 61 60" fill="none" xmlns="http://www.w3.org/2000/svg">
<path fill-rule="evenodd" clip-rule="evenodd" d="M52.5814 41.4027L52.5305 41.4536L52.5814 41.4027ZM60.0712 37.1436V38.9833C60.0277 39.963 59.9089 40.8937 59.6947 41.7393C59.4232 42.8101 59.0853 43.7389 58.559 44.6797C58.4312 44.9082 58.3116 45.1085 58.183 45.3228C57.7058 46.1194 57.2428 46.6732 56.6451 47.3513C56.2494 47.8001 55.8094 48.224 55.3335 48.5874C52.8936 50.4493 50.0134 51.345 46.8238 51.3379C45.4476 51.3349 44.2361 51.1926 43.0903 50.9953C42.4916 50.8921 41.9642 50.7681 41.4224 50.6248C41.0456 50.5251 40.1672 50.1929 39.8435 50.1658C39.85 49.8662 40.1119 49.4253 40.234 49.1807L41.151 47.4482C41.3048 47.1351 41.4487 46.9045 41.6096 46.5821C41.7724 46.2562 41.9062 45.9905 42.0688 45.6654C42.2171 45.369 42.2387 44.9484 42.6123 44.8844C44.1067 44.629 45.6854 44.4717 47.1231 44.0453C47.4584 43.946 47.8253 43.853 48.1551 43.7525C49.3378 43.393 51.9356 42.3408 52.5299 41.453C52.3879 41.4911 52.2007 41.6599 52.0623 41.7494C51.7388 41.9579 50.9285 42.3134 50.5627 42.4409C48.0459 43.318 45.6643 43.5243 43.0022 43.746C43.0646 43.4786 43.9307 41.6304 44.1056 41.2831L44.9528 39.4808C45.0472 39.2625 45.1397 39.083 45.1928 38.8547C45.9344 38.8383 48.8937 38.0223 49.8076 37.7631L51.868 36.9704C52.201 36.8062 52.4771 36.6598 52.794 36.4699C53.0252 36.3314 53.4672 36.0462 53.5996 35.8487C53.4571 35.8867 53.3287 35.9855 53.2023 36.0627C53.0644 36.1467 52.9568 36.1998 52.8022 36.2739C51.1781 37.0536 47.5013 37.683 45.7023 37.683C45.7196 37.4758 46.6661 35.1971 46.8158 34.8225C47.0076 34.3428 47.1921 33.857 47.3763 33.3959C47.6636 32.6773 47.5651 32.7873 47.7495 32.8095C48.2437 32.8683 51.174 32.0293 51.5423 31.9067C52.1375 31.7083 53.8292 31.0524 54.1598 30.6011C54.0772 30.6203 53.1407 31.1572 51.2944 31.5567C50.7673 31.6708 50.1839 31.7392 49.6607 31.8085L47.9438 31.9768C48.0426 31.5526 49.6462 27.8011 49.676 27.4421L49.5909 27.5609C49.5852 27.5704 49.5778 27.5833 49.5723 27.5932L48.1184 30.9284C48.0196 31.1654 47.6532 31.8963 47.6379 32.0783C47.3809 32.057 46.6399 31.4172 46.4032 31.224C46.2855 31.1276 46.2102 31.0721 46.0961 30.9706C45.979 30.8663 45.9275 30.8458 45.8156 30.7415C45.1646 30.1356 44.2843 29.3442 43.8057 28.6245L43.4089 28.0023C43.465 28.6774 44.7065 30.1772 45.1337 30.7103L47.0394 32.6839C47.1666 32.7958 47.2594 32.7435 47.2597 32.7427C47.2616 32.7353 47.2745 32.7381 47.2813 32.7411L46.9751 33.4537C46.4371 34.6632 45.1523 37.2604 44.6318 38.2437C43.2406 37.3122 41.4843 35.7346 40.3916 34.4848C40.1614 34.2215 39.7343 33.6463 39.5701 33.3193L39.3979 32.9819C39.3323 32.8774 39.3802 32.9485 39.3328 32.8941C39.3733 33.3817 40.0161 34.403 40.2602 34.7691C40.4586 35.0668 40.6173 35.2849 40.8324 35.5728C41.337 36.2479 41.9229 36.827 42.456 37.4649C42.7838 37.8567 44.0169 38.9275 44.1734 39.1612C44.0673 39.3618 43.9731 39.5722 43.8683 39.7734C43.7682 39.9658 43.6639 40.1275 43.5618 40.3333L42.0039 43.208C41.8898 43.3987 41.84 43.6272 41.6766 43.7468C41.3743 43.6661 39.8935 42.4059 39.6163 42.1894C39.436 42.0488 39.2825 41.9213 39.1158 41.7727C39.0069 41.6758 38.9653 41.6602 38.8621 41.568L37.6895 40.4986C36.7794 39.5867 35.8574 38.6686 35.1834 37.553C35.0546 37.3398 34.979 37.1797 34.8655 36.9539C34.7847 36.7939 34.7155 36.498 34.5943 36.3588C34.713 37.7878 36.4406 40 37.3379 41.1047L41.0139 44.9186C40.9364 45.2511 40.6581 45.6079 40.4756 45.9089C40.3653 46.0912 40.2958 46.2195 40.1959 46.3936L36.6346 52.4618C36.2663 53.1051 35.8919 53.7036 35.5269 54.3601L33.585 57.6661C33.3262 58.0979 32.3221 59.6906 32.2502 59.9998C31.817 59.9998 31.3715 59.8701 30.9807 59.7918C30.2402 59.6435 27.9749 59.1296 27.4098 59.0828C27.6019 58.7957 27.9987 58.8291 28.3066 58.7057C29.2022 58.3458 30.3007 57.1155 30.9377 56.3947L31.4974 55.7314C31.6906 55.51 31.872 55.2809 32.0466 55.0576L36.734 48.6378C36.6056 48.4624 36.0635 48.1236 35.8547 47.9375C35.0442 47.2153 34.2451 46.4997 33.559 45.6476L32.6872 44.4815C32.3949 44.0815 32.1207 43.6247 31.8942 43.1855C31.1307 41.7073 30.6096 40.3853 30.356 38.6095C30.0147 36.2219 30.4725 33.7331 31.3624 31.598C31.9218 30.2558 32.6535 29.2277 33.4802 28.1112C33.8428 27.6219 34.2552 27.195 34.6835 26.7667C35.7365 25.7137 36.7632 24.7685 37.9569 23.8753C38.1523 23.7292 38.3277 23.5902 38.539 23.4383L44.125 19.8532C44.3538 19.7153 44.5615 19.6025 44.8004 19.4586C45.0239 19.3245 45.23 19.2033 45.4467 19.0859C45.8808 18.8514 46.2877 18.5851 46.7381 18.3391C46.9797 18.2072 47.1571 18.087 47.3831 17.965C48.4503 17.3887 49.5307 16.7092 50.4986 15.9854C51.0634 15.5629 51.6805 15.0927 52.0182 14.448C52.2013 14.0986 52.1208 14.0255 52.169 13.5773C52.256 12.7741 53.3484 14.7778 53.4634 14.9931C53.8188 15.6595 54.1937 16.3162 54.4871 17.0266C54.5933 17.2842 54.6921 17.4568 54.8075 17.7253C55.3209 18.9178 55.863 20.0943 56.3058 21.3222C56.8481 22.8272 57.4535 24.3085 57.8793 25.8628C58.0265 26.4003 58.1937 26.915 58.3557 27.4755C59.1367 30.1789 59.9371 33.8078 60.0704 37.1439L60.0712 37.1436ZM52.6326 41.3518L52.5817 41.4027L52.6326 41.3518ZM34.545 36.2058L52.6326 41.3518L34.545 36.2058ZM16.4575 31.0598C16.4575 30.9295 16.5382 31.0516 16.4878 31.0598C16.4873 31.0598 16.4575 31.2021 16.4575 31.0598ZM35.5641 30.6523L35.5132 30.7032L35.5641 30.6523ZM35.615 30.6014L35.5641 30.6523L35.615 30.6014ZM21.2469 27.7483L35.615 30.6014L21.2469 27.7483ZM6.87885 24.8952C6.82713 24.8268 6.82795 25.0022 6.82795 24.7422C6.87502 24.8046 6.86106 24.6851 6.87885 24.8952ZM6.77705 24.6404L6.79238 24.6558C6.79128 24.6547 6.77212 24.6456 6.77705 24.6404ZM21.7567 22.5517L21.7058 22.6026L21.7567 22.5517ZM10.9552 20.004L21.7567 22.5517L10.9552 20.004ZM0.15359 17.4563L0.095029 17.3569L0.15359 17.4563ZM0.0517922 17.2524L0.0671166 17.2677C0.066022 17.2666 0.0468665 17.2576 0.0517922 17.2524ZM0.000892988 17.0994L0.0159437 17.1148C0.0148491 17.1137 -0.00430639 17.1046 0.000892988 17.0994ZM6.42048 16.8956C6.43526 16.7174 6.43116 16.7459 6.52255 16.6408C6.50778 16.8189 6.51188 16.7905 6.42048 16.8956ZM6.57345 16.539L6.52255 16.6408L6.57345 16.539ZM6.57345 16.539L6.60164 16.4293L6.57345 16.539ZM6.62435 16.3351L6.63968 16.3505C6.63858 16.3494 6.61943 16.3403 6.62435 16.3351ZM6.67525 16.1824L6.6903 16.1978C6.68921 16.1967 6.67005 16.1876 6.67525 16.1824Z" fill="#143666"/>
<path fill-rule="evenodd" clip-rule="evenodd" d="M15.8459 38.7023C15.9301 38.7639 16.1274 39.011 16.2407 39.1226L17.0299 39.9638C17.1928 40.1283 17.3074 40.1891 17.4645 40.3448C18.0176 40.8929 18.6138 41.3513 19.2449 41.8249C19.8486 42.2781 20.5362 42.7433 21.2111 43.1193C21.9168 43.5126 22.6209 43.9345 23.4008 44.2413C24.4481 44.6537 24.5307 44.736 25.7748 45.1282C26.4624 45.3449 26.2958 45.2024 26.7186 45.8148C26.8456 45.9987 26.9293 46.1161 27.0667 46.2822C27.9276 47.324 28.7759 48.3649 29.7939 49.2614C29.8959 49.3512 29.9208 49.3506 30.0224 49.4407C30.1053 49.5145 30.1431 49.5698 30.2279 49.6429C30.5472 49.9185 30.6195 49.7507 30.7746 49.9625C30.3784 50.0547 30.7101 50.1045 30.1094 50.017C29.3246 49.9026 28.8744 49.7789 28.0942 49.5857C23.591 48.4711 19.4613 45.1722 17.0896 41.2289C17.0204 41.1143 16.9911 41.0431 16.9254 40.9342C16.5727 40.3502 16.3748 39.8637 16.1009 39.3131L15.8456 38.7023H15.8459ZM14.4702 31.7729C14.4702 29.8092 14.7261 28.7277 15.1327 26.9835L16.5979 28.8301C17.1027 29.338 17.5898 29.9643 18.2482 30.4914C18.3386 30.5636 18.3719 30.611 18.4568 30.6906L20.0844 31.9672C20.7664 32.4297 21.424 32.859 22.1639 33.2506C22.1639 33.8135 22.3489 35.173 22.4649 35.7521C22.9132 37.9892 23.2134 39.0947 24.0784 41.1701C24.1624 41.3718 24.2273 41.4944 24.2968 41.6649C24.3717 41.849 24.4662 41.9886 24.5077 42.1673L21.9891 40.8647C19.0407 39.0996 16.8168 36.6431 15.2271 33.6151C15.0928 33.3595 14.4705 32.0321 14.4705 31.7734L14.4702 31.7729ZM22.1128 30.6011C21.5698 30.4561 18.992 28.2398 18.5167 27.6243L18.0208 27.0502C17.4289 26.3458 16.7755 25.4592 16.3376 24.6571C16.0423 24.1161 16.0727 24.3381 16.3721 23.7396C16.8619 22.7605 16.898 22.7066 17.435 21.8473C17.5433 21.6738 17.592 21.5805 17.7163 21.4155L20.0615 18.6144L20.8386 17.9141C20.9878 18.225 21.0986 18.6935 21.3649 19.2219C22.2983 21.0737 22.2819 20.8862 23.4077 22.3251C23.5054 22.4499 23.5609 22.4822 23.6408 22.6015L23.0694 24.3736C22.8995 24.979 22.7296 25.6032 22.5919 26.2908C22.3328 27.5871 22.1122 29.0867 22.1122 30.6006L22.1128 30.6011ZM24.8131 20.0032C24.5091 19.7996 23.9405 18.7164 23.7432 18.3218C23.2235 17.2828 23.1387 16.6167 22.9789 16.2837C25.023 15.2022 24.829 15.0599 27.7108 14.1374C28.2921 13.9514 28.9174 13.8329 29.5514 13.6854L28.8509 14.3605C27.7316 15.4761 26.6794 16.8822 25.8221 18.2102C25.6935 18.4094 24.8657 19.7771 24.8131 20.0034V20.0032ZM20.3803 13.9401H20.2276C20.2276 14.2589 20.1121 14.2453 19.8855 14.4133C19.4148 14.7625 18.9236 15.1185 18.5077 15.532C17.8818 16.1545 17.0283 16.857 16.4276 17.63C15.4455 18.894 14.4338 20.152 13.7229 21.5999C13.2142 22.6354 12.8179 23.3444 12.4384 24.4935C12.2974 24.9201 12.1379 25.321 12.0238 25.7602C11.9083 26.2052 11.8043 26.5763 11.6968 27.0636C10.6005 32.0438 11.2291 37.0609 13.4848 41.5724C14.4333 43.4693 15.654 45.2779 17.158 46.7646C17.23 46.8355 17.2702 46.8724 17.3307 46.9485L20.319 49.5137C20.6186 49.7179 20.892 49.9302 21.1977 50.1128C23.8896 51.7205 25.9767 52.5756 29.165 53.202C29.7345 53.3139 29.6855 53.2959 30.4238 52.3638C31.0431 51.5817 32.5304 49.8153 32.9647 48.9943C32.8434 48.765 32.008 47.8206 31.8085 47.6537C31.369 47.2862 30.4602 46.4839 30.1625 46.0389C30.4457 46.0389 30.5141 46.0726 30.7229 46.0898C30.6586 45.8134 29.8226 44.4731 29.6237 43.9791C29.4496 43.5473 29.4893 43.5886 28.9691 43.5125C28.2757 43.4113 28.1656 43.5295 27.8477 43.0033C27.7631 42.8632 27.7122 42.8068 27.6318 42.6588C26.7416 41.0141 26.2211 39.9551 25.6076 38.1101C25.3325 37.2834 25.1311 36.3588 24.9601 35.4968C24.9122 35.2554 24.812 34.788 24.812 34.5239L27.2883 35.2573C27.5442 35.315 27.9462 35.4357 28.1747 35.4409C28.1908 34.7199 28.5162 33.932 28.5312 33.2501C27.7045 33.1814 25.8065 32.4978 24.9981 32.1467C24.774 32.0493 24.6547 32.0693 24.5975 31.8342C24.4057 31.0472 24.7469 28.4226 24.8695 27.7032L25.4453 25.1711C25.5118 24.9371 25.6609 24.5389 25.6779 24.334C25.8755 24.3868 26.7736 24.9582 27.0196 25.081C28.0086 25.5755 28.9926 25.94 30.1149 26.1639C30.4244 26.2254 30.6972 26.2851 31.0275 26.3209C31.3009 26.3508 31.7267 26.4227 31.9957 26.4227C32.167 26.1669 32.3375 25.9909 32.5339 25.7381L33.6899 24.4483C33.8902 24.248 34.1392 24.0472 34.2886 23.8241C33.8529 23.8241 33.5112 23.9262 33.0148 23.9262C30.544 23.9262 29.2102 23.5007 27.2787 22.3254C27.0554 22.1894 26.9104 22.0523 26.6967 21.9392C26.9378 20.9043 29.1087 17.8473 29.7416 17.1375C29.8163 17.0537 29.8686 17.0187 29.9427 16.9309C30.7136 16.0139 31.8952 14.876 32.913 14.1946C33.0509 14.2871 33.18 14.4004 33.3139 14.5071L35.2439 16.2454L37.2342 18.688C37.3379 18.841 37.4244 18.9551 37.5267 19.1086C37.6422 19.2815 37.7114 19.4011 37.825 19.5746C38.033 19.8918 38.1909 20.1846 38.3644 20.5127C38.6008 20.4577 40.1836 19.3519 40.5043 19.137C39.8938 17.9831 38.4489 15.8924 37.4865 14.9198L36.5678 14.0044C36.4535 13.8917 36.3593 13.8107 36.2753 13.6854C38.661 14.2411 39.7042 14.6204 41.7442 15.6554C41.947 15.7583 42.2543 15.9797 42.4404 16.0292C42.3898 16.6389 41.8211 17.9571 41.5743 18.4239C41.8064 18.3697 42.0474 18.1793 42.2393 18.0698C42.8016 17.7485 46.7085 15.3872 46.9751 15.3158V15.214C46.7504 15.154 46.5244 14.8826 46.3347 14.7334C44.7725 13.5056 43.136 12.5295 41.2829 11.7353C39.0397 10.774 36.327 10.0682 33.7279 10.0682C31.8069 10.0682 30.5024 10.0967 28.6284 10.4716C25.8952 11.0181 23.3223 12.0585 21.0411 13.5838C20.8936 13.6824 20.5811 13.9404 20.3786 13.9404L20.3803 13.9401Z" fill="#386FB2"/>
<path d="M14.6022 47.5177L16.1135 49.0945L12.4532 52.6035L10.9415 51.0268C10.7273 50.7963 10.5721 50.5821 10.4774 50.385C10.316 50.0468 10.2719 49.6905 10.3439 49.3156C10.4043 49.0138 10.5182 48.7371 10.6862 48.4881C10.8534 48.2382 11.0332 48.0221 11.2247 47.8382C11.7121 47.3708 12.2176 47.0736 12.7419 46.945C13.4515 46.7739 14.0713 46.9638 14.6019 47.5174L14.6022 47.5177ZM11.3296 49.5633C11.2434 49.8706 11.3676 50.1987 11.7006 50.5462L12.3768 51.2514L14.7658 48.9612L14.0896 48.2558C13.7434 47.8945 13.3239 47.8135 12.8314 48.0125C12.5624 48.1222 12.292 48.3067 12.0224 48.5653C11.6495 48.9229 11.419 49.2543 11.3296 49.563V49.5633ZM8.70743 48.2837L8.09363 47.4291L12.2129 44.472L12.8264 45.3266L8.70743 48.2837ZM9.81271 39.9877L10.2869 40.9348L7.99375 44.3995L11.2144 42.7868L11.6566 43.6699L7.12217 45.9401L6.62439 44.9457L8.88558 41.5559L5.72052 43.1407L5.27858 42.2576L9.81271 39.9874V39.9877ZM6.16685 34.074L6.614 36.497L7.89687 36.2602L7.38733 33.4991L8.28354 33.3338L8.98108 37.1135L3.9946 38.0338L3.31978 34.3764L4.20203 34.2136L4.68886 36.8524L5.74789 36.657L5.30074 34.2341L6.16685 34.0743V34.074ZM8.40422 28.3936L8.37139 29.4523L4.70719 31.4111L8.30708 31.5231L8.27643 32.5101L3.20813 32.3528L3.24261 31.2412L6.84277 29.3333L3.305 29.2236L3.33565 28.2365L8.40395 28.3939L8.40422 28.3936ZM4.13006 24.2281L4.41165 23.2142L9.2977 24.5707L9.01611 25.5846L4.13034 24.2281H4.13006ZM9.58667 21.6131C9.68902 21.3848 9.7473 21.1883 9.76071 21.0233C9.78534 20.71 9.66658 20.4949 9.40524 20.3775C9.252 20.3088 9.10395 20.3236 8.96028 20.4202C8.81771 20.5171 8.65188 20.6952 8.46032 20.953L8.13139 21.3939C7.80602 21.827 7.53921 22.1067 7.32932 22.2337C6.97631 22.4499 6.57185 22.4567 6.11732 22.2531C5.70356 22.0679 5.42635 21.7619 5.28679 21.338C5.14832 20.9144 5.21016 20.4093 5.47123 19.8261C5.69015 19.3374 6.00512 18.9792 6.41751 18.7509C6.831 18.5233 7.28718 18.5101 7.78632 18.7145L7.37009 19.6439C7.0844 19.5349 6.83128 19.5683 6.61317 19.7421C6.46869 19.8576 6.34609 20.0278 6.24593 20.2519C6.13456 20.5004 6.0957 20.7226 6.12854 20.9161C6.16302 21.109 6.26974 21.2472 6.44981 21.3276C6.61482 21.4015 6.77135 21.3829 6.91912 21.274C7.0149 21.2037 7.16951 21.031 7.38022 20.7562L7.92944 20.0448C8.16943 19.7328 8.40012 19.5196 8.61931 19.4041C8.96165 19.2254 9.33874 19.2285 9.75032 19.4129C10.1737 19.6025 10.4517 19.9213 10.5863 20.3704C10.7215 20.8184 10.6558 21.3383 10.3918 21.9278C10.1214 22.5312 9.77193 22.9433 9.34148 23.166C8.9113 23.3877 8.45594 23.3907 7.97459 23.1751L8.38808 22.2523C8.61275 22.3169 8.79664 22.3311 8.93921 22.292C9.20055 22.2197 9.41646 21.9934 9.58695 21.6131H9.58667ZM12.8686 17.5586C12.448 18.1484 11.9655 18.4852 11.4221 18.5679C10.7303 18.7047 10.013 18.509 9.27197 17.9806C8.5156 17.4415 8.09691 16.8269 8.01619 16.1392C7.9174 15.5985 8.07858 15.0326 8.49918 14.4428C8.92006 13.8528 9.4025 13.5163 9.94598 13.4336C10.6219 13.2867 11.3383 13.4834 12.0947 14.0225C12.8357 14.5509 13.2552 15.1642 13.3516 15.862C13.4506 16.4027 13.2894 16.9686 12.8686 17.5586ZM12.341 15.952C12.231 15.5722 11.9434 15.217 11.4787 14.8856C11.016 14.5556 10.5858 14.4004 10.1893 14.4204C9.79355 14.4412 9.47338 14.621 9.22928 14.9633C8.98601 15.3048 8.91787 15.6672 9.02487 16.0508C9.13214 16.4345 9.41755 16.7924 9.88249 17.1238C10.3471 17.4552 10.7787 17.6084 11.1763 17.5849C11.5739 17.5611 11.8936 17.378 12.1368 17.0368C12.3809 16.6944 12.4493 16.3335 12.3407 15.9517L12.341 15.952Z" fill="#143666"/>
<path d="M18.9137 11.459L17.6842 12.3319L14.6965 8.12342L13.2614 9.14222L12.6821 8.32619C13.0491 8.03968 13.2959 7.8276 13.4237 7.68503C13.6273 7.46063 13.7472 7.21571 13.7863 6.94808C13.8112 6.76419 13.7874 6.56306 13.7108 6.34277C13.6634 6.21223 13.6213 6.11919 13.5833 6.06583L14.5815 5.35707L18.9132 11.4587L18.9137 11.459ZM24.566 5.68983L24.9847 6.76118L24.1955 7.06958L24.7819 8.56919L23.4416 9.09324L22.8554 7.59363L20.0959 8.67263L19.6277 7.47486L20.5367 2.24347L22.0741 1.64253L23.7771 5.99824L24.5663 5.68983H24.566ZM20.6911 7.20477L22.4367 6.52228L21.2603 3.51348L20.6911 7.20477ZM28.8073 7.83718C27.8613 7.95211 27.1586 7.70227 26.6969 7.08573C26.235 6.46919 25.9315 5.54781 25.7826 4.32212C25.6338 3.09644 25.7077 2.12744 26.0081 1.41485C26.3083 0.702535 26.9306 0.289595 27.8766 0.174662C28.8226 0.0597282 29.5276 0.311214 29.9914 0.931034C30.452 1.55113 30.7557 2.47416 30.9046 3.70011C31.0534 4.92607 30.9774 5.89343 30.6785 6.60219C30.3781 7.31122 29.7536 7.72252 28.8076 7.83718H28.8073ZM29.437 5.86388C29.515 5.39648 29.5024 4.73616 29.3987 3.88291C29.29 2.98753 29.1412 2.33322 28.9543 1.91919C28.7674 1.50543 28.4562 1.32509 28.0225 1.37763C27.589 1.43045 27.3282 1.68002 27.2407 2.12744C27.1531 2.57459 27.1635 3.24585 27.2724 4.14124C27.3761 4.99448 27.5255 5.64003 27.7204 6.07596C27.9152 6.50997 28.2294 6.70234 28.6631 6.6498C29.0966 6.59726 29.3541 6.33538 29.437 5.86388ZM34.6334 7.70774C33.6832 7.63522 33.0426 7.25266 32.7104 6.55786C32.3782 5.86305 32.2605 4.90008 32.3544 3.66892C32.448 2.43776 32.7101 1.50187 33.1439 0.861801C33.5776 0.22173 34.2686 -0.0612257 35.219 0.0110183C36.1694 0.0832622 36.8113 0.467742 37.1449 1.1661C37.4752 1.86446 37.5926 2.82908 37.499 4.06024C37.4054 5.2914 37.1416 6.22537 36.7098 6.86216C36.2764 7.49867 35.5837 7.77998 34.6334 7.70774ZM35.6368 5.89562C35.8049 5.45258 35.9214 4.80266 35.9866 3.94531C36.055 3.04609 36.0372 2.37509 35.9348 1.9326C35.8325 1.49038 35.5627 1.25257 35.127 1.21919C34.6916 1.18608 34.3871 1.3801 34.2136 1.80152C34.0404 2.22294 33.9194 2.88326 33.851 3.78248C33.7856 4.63956 33.8061 5.3018 33.912 5.76755C34.0182 6.23139 34.2888 6.48151 34.7242 6.51462C35.1599 6.548 35.4636 6.3414 35.6371 5.89535L35.6368 5.89562ZM41.4018 9.15618L39.9717 8.67756L41.6096 3.7833L39.9408 3.22478L40.2583 2.27603C40.706 2.40355 41.0228 2.47799 41.2133 2.49714C41.5146 2.52916 41.783 2.48154 42.0222 2.35539C42.1856 2.267 42.3339 2.12908 42.4666 1.93752C42.5441 1.82232 42.5944 1.73311 42.6149 1.67154L43.7761 2.06012L41.4016 9.15618H41.4018Z" fill="#143666"/>
</svg>
