<svg width="106" height="60" viewBox="0 0 106 60" fill="none" xmlns="http://www.w3.org/2000/svg">
<path fill-rule="evenodd" clip-rule="evenodd" d="M90.1993 0H92.5238L105.318 12.2505H105.634V12.5532V15.0942V42.9844V48.2499H100.368H30.9651L30.2849 43.035L30.3438 42.9844H100.368V15.0942H90.1993V5.26551H5.26551V42.9844H15.3384L15.3954 43.035L14.7153 48.2499H5.26551H0V42.9844V5.26551V0H5.26551H90.1993Z" fill="#143666"/>
<path d="M13.2741 9.52552V13.656H14.4935C15.1175 13.656 15.5526 13.3483 15.7988 12.7328C15.9333 12.3951 16.0006 11.9929 16.0006 11.5263C16.0006 10.8823 15.899 10.3885 15.6957 10.045C15.4954 9.6987 15.0946 9.52552 14.4935 9.52552H13.2741ZM14.7168 8.42636C15.1089 8.43209 15.4353 8.47788 15.6957 8.56376C16.1394 8.70974 16.4986 8.97737 16.7734 9.36666C16.9938 9.68152 17.1441 10.0221 17.2243 10.3885C17.3044 10.7549 17.3445 11.1041 17.3445 11.4362C17.3445 12.2777 17.1756 12.9905 16.8378 13.5744C16.3798 14.3615 15.6728 14.7551 14.7168 14.7551H11.9904V8.42636H14.7168ZM19.5557 14.7551H18.2418V8.42636H19.5557V14.7551ZM20.7708 8.42636H22.1576L24.6779 12.8445V8.42636H25.9102V14.7551H24.5878L22.003 10.2597V14.7551H20.7708V8.42636ZM34.2741 9.54699H30.9251V10.8909H33.9993V11.99H30.9251V13.6173H34.4287V14.7551H29.6328V8.42636H34.2741V9.54699ZM35.4377 8.42636H36.8245L39.3449 12.8445V8.42636H40.5771V14.7551H39.2547L36.67 10.2597V14.7551H35.4377V8.42636ZM45.4718 14.7551H44.158V8.42636H45.4718V14.7551ZM47.6659 12.8015C47.7059 13.0906 47.7847 13.3068 47.902 13.4499C48.1167 13.7104 48.4845 13.8406 49.0055 13.8406C49.3175 13.8406 49.5708 13.8062 49.7654 13.7375C50.1347 13.6059 50.3193 13.3611 50.3193 13.0033C50.3193 12.7944 50.2277 12.6327 50.0445 12.5182C49.8613 12.4065 49.5737 12.3078 49.1815 12.2219L48.5117 12.0716C47.8534 11.9228 47.3982 11.7611 47.1463 11.5865C46.7199 11.2945 46.5066 10.8379 46.5066 10.2168C46.5066 9.65004 46.7127 9.17917 47.1249 8.8042C47.5371 8.42922 48.1425 8.24174 48.9411 8.24174C49.608 8.24174 50.1762 8.41921 50.6456 8.77414C51.1179 9.12622 51.3655 9.63859 51.3884 10.3113H50.1175C50.0946 9.93055 49.9286 9.66006 49.6195 9.49976C49.4134 9.39385 49.1572 9.3409 48.8509 9.3409C48.5103 9.3409 48.2384 9.4096 48.0351 9.54699C47.8319 9.68439 47.7303 9.87617 47.7303 10.1223C47.7303 10.3485 47.8305 10.5173 48.0308 10.629C48.1596 10.7034 48.4344 10.7907 48.8552 10.8909L49.9458 11.1528C50.4238 11.2673 50.7845 11.4204 51.0278 11.6122C51.4056 11.9099 51.5945 12.3407 51.5945 12.9046C51.5945 13.4828 51.3727 13.9637 50.929 14.3472C50.4882 14.7279 49.8642 14.9183 49.057 14.9183C48.2326 14.9183 47.5843 14.7308 47.112 14.3558C46.6397 13.978 46.4036 13.4599 46.4036 12.8015H47.6659ZM55.3729 13.8105C55.8967 13.8105 56.3118 13.6173 56.618 13.2309C56.9272 12.8445 57.0817 12.2949 57.0817 11.5822C57.0817 10.8723 56.9272 10.3241 56.618 9.93771C56.3118 9.54842 55.8967 9.35378 55.3729 9.35378C54.8491 9.35378 54.4312 9.54699 54.1192 9.93342C53.8072 10.3198 53.6512 10.8694 53.6512 11.5822C53.6512 12.2949 53.8072 12.8445 54.1192 13.2309C54.4312 13.6173 54.8491 13.8105 55.3729 13.8105ZM58.4042 11.5822C58.4042 12.7185 58.085 13.5887 57.4467 14.1927C56.9687 14.685 56.2774 14.9312 55.3729 14.9312C54.4684 14.9312 53.7771 14.685 53.2991 14.1927C52.6579 13.5887 52.3373 12.7185 52.3373 11.5822C52.3373 10.4229 52.6579 9.55272 53.2991 8.97165C53.7771 8.47932 54.4684 8.23315 55.3729 8.23315C56.2774 8.23315 56.9687 8.47932 57.4467 8.97165C58.085 9.55272 58.4042 10.4229 58.4042 11.5822Z" fill="#143666"/>
<path d="M43.9471 23.7442C43.9471 22.0002 44.4486 20.5892 45.4517 19.5113C46.4622 18.4259 47.7722 17.8832 49.3815 17.8832C51.8592 17.8832 53.5584 18.9798 54.4791 21.173C55.003 22.4156 55.265 24.0511 55.265 26.0797C55.265 28.0483 55.0143 29.6914 54.5127 31.0088C53.5546 33.5164 51.7956 34.7702 49.2355 34.7702C48.0154 34.7702 46.9188 34.4109 45.9457 33.6923C44.9726 32.9662 44.415 31.9108 44.2727 30.526H47.4615C47.5364 31.0051 47.7385 31.3943 48.0678 31.6937C48.3972 31.9931 48.8351 32.1429 49.3815 32.1429C50.437 32.1429 51.178 31.559 51.6047 30.3913C51.8367 29.7475 51.9827 28.8081 52.0426 27.573C51.7506 27.9398 51.44 28.2205 51.1106 28.4151C50.5118 28.7744 49.7745 28.9541 48.8987 28.9541C47.6037 28.9541 46.4547 28.5087 45.4517 27.6179C44.4486 26.7197 43.9471 25.4285 43.9471 23.7442ZM49.5948 26.3492C50.0365 26.3492 50.4519 26.2219 50.8412 25.9674C51.5672 25.5033 51.9303 24.6986 51.9303 23.5534C51.9303 22.6327 51.7132 21.9028 51.2791 21.3639C50.8524 20.8249 50.2648 20.5555 49.5162 20.5555C48.9698 20.5555 48.502 20.7089 48.1127 21.0158C47.4989 21.4949 47.192 22.3071 47.192 23.4523C47.192 24.4179 47.3867 25.144 47.7759 25.6306C48.1726 26.1096 48.7789 26.3492 49.5948 26.3492ZM60.0482 26.3155C60.0482 28.1868 60.2016 29.6203 60.5085 30.6158C60.8154 31.6039 61.4442 32.0979 62.3949 32.0979C63.3455 32.0979 63.9668 31.6039 64.2587 30.6158C64.5581 29.6203 64.7078 28.1868 64.7078 26.3155C64.7078 24.3543 64.5581 22.9021 64.2587 21.959C63.9668 21.0158 63.3455 20.5442 62.3949 20.5442C61.4442 20.5442 60.8154 21.0158 60.5085 21.959C60.2016 22.9021 60.0482 24.3543 60.0482 26.3155ZM62.3949 17.9056C64.4683 17.9056 65.9205 18.6355 66.7514 20.0951C67.5897 21.5548 68.0089 23.6282 68.0089 26.3155C68.0089 29.0027 67.5897 31.0724 66.7514 32.5246C65.9205 33.9768 64.4683 34.7029 62.3949 34.7029C60.3214 34.7029 58.8655 33.9768 58.0271 32.5246C57.1963 31.0724 56.7808 29.0027 56.7808 26.3155C56.7808 23.6282 57.1963 21.5548 58.0271 20.0951C58.8655 18.6355 60.3214 17.9056 62.3949 17.9056ZM72.8482 26.3155C72.8482 28.1868 73.0017 29.6203 73.3086 30.6158C73.6155 31.6039 74.2442 32.0979 75.1949 32.0979C76.1455 32.0979 76.7668 31.6039 77.0587 30.6158C77.3582 29.6203 77.5079 28.1868 77.5079 26.3155C77.5079 24.3543 77.3582 22.9021 77.0587 21.959C76.7668 21.0158 76.1455 20.5442 75.1949 20.5442C74.2442 20.5442 73.6155 21.0158 73.3086 21.959C73.0017 22.9021 72.8482 24.3543 72.8482 26.3155ZM75.1949 17.9056C77.2683 17.9056 78.7205 18.6355 79.5514 20.0951C80.3897 21.5548 80.8089 23.6282 80.8089 26.3155C80.8089 29.0027 80.3897 31.0724 79.5514 32.5246C78.7205 33.9768 77.2683 34.7029 75.1949 34.7029C73.1214 34.7029 71.6655 33.9768 70.8272 32.5246C69.9963 31.0724 69.5808 29.0027 69.5808 26.3155C69.5808 23.6282 69.9963 21.5548 70.8272 20.0951C71.6655 18.6355 73.1214 17.9056 75.1949 17.9056ZM83.2566 23.0706V20.8923C84.2672 20.8474 84.9745 20.78 85.3788 20.6902C86.0225 20.548 86.5465 20.2635 86.9507 19.8369C87.2276 19.5449 87.4372 19.1557 87.5795 18.6692C87.6618 18.3772 87.703 18.1601 87.703 18.0179H90.364V34.2986H87.0854V23.0706H83.2566Z" fill="#143666"/>
<path fill-rule="evenodd" clip-rule="evenodd" d="M26.9486 38.6113L30.1309 39.9873L29.1168 34.3761L34.0102 32.5435L29.9777 28.9673L32.663 24.0787L27.4988 24.2107L26.7195 18.5536L22.8402 22.3322L18.9609 18.5536L18.1815 24.2107L13.0173 24.0787L15.7026 28.9673L11.67 32.5435L16.5634 34.3761L15.5493 39.9873L18.7318 38.6113L15.942 60L22.8402 52.8646L29.7383 60L26.9486 38.6113H26.9486ZM22.8402 25.1236C25.9422 25.1236 28.4569 27.6383 28.4569 30.7403C28.4569 33.8423 25.9422 36.357 22.8402 36.357C19.7382 36.357 17.2235 33.8423 17.2235 30.7403C17.2235 27.6383 19.7382 25.1236 22.8402 25.1236Z" fill="#386FB2"/>
</svg>
