<svg width="22" height="22" viewBox="0 0 22 22" fill="none" xmlns="http://www.w3.org/2000/svg">
<path d="M15.032 13.9039L14.912 14.0239L13.16 12.2719C14.192 11.0479 14.816 9.46393 14.816 7.73593C14.816 5.88793 14.072 4.08793 12.752 2.76793C11.432 1.42393 9.60803 0.679932 7.76003 0.679932C3.87203 0.679932 0.728027 3.84793 0.728027 7.73593C0.728027 9.63193 1.47203 11.4079 2.81603 12.7519C4.13603 14.0719 5.88803 14.7919 7.73603 14.7919C7.76003 14.7919 7.76003 14.7919 7.78403 14.7919C9.51202 14.7919 11.096 14.1679 12.32 13.1359L14.072 14.8879L13.88 15.0559C13.64 15.2959 13.64 15.6799 13.88 15.8959L18.872 20.8879C19.424 21.4399 20.336 21.4399 20.888 20.8879C21.44 20.3359 21.44 19.4239 20.888 18.8719L15.872 13.9039C15.632 13.6639 15.272 13.6639 15.032 13.9039ZM7.76003 13.5679H7.73603C6.20003 13.5679 4.73603 12.9679 3.65603 11.8879C2.55203 10.7839 1.92803 9.29593 1.92803 7.73593C1.92803 4.49593 4.54403 1.87993 7.76003 1.87993C9.29603 1.87993 10.784 2.50393 11.888 3.60793C12.992 4.71193 13.616 6.19993 13.616 7.73593C13.616 10.9519 11 13.5679 7.76003 13.5679Z" fill="black"/>
<path d="M3.03198 7.7359C3.03198 8.2399 3.10398 8.7199 3.24798 9.1999C3.36798 9.5359 3.75198 9.7039 4.08798 9.5599C4.35198 9.4399 4.49598 9.1279 4.39998 8.8399C4.27998 8.4799 4.23198 8.1199 4.23198 7.7359C4.23198 6.8479 4.56798 6.0079 5.16798 5.3599C5.35998 5.1439 5.35998 4.8079 5.19198 4.5919C4.95198 4.3039 4.54398 4.3039 4.27998 4.5679C3.48798 5.4079 3.03198 6.5359 3.03198 7.7359Z" fill="black"/>
</svg>
