<svg width="41" height="40" viewBox="0 0 41 40" fill="none" xmlns="http://www.w3.org/2000/svg">
<g clip-path="url(#clip0_1_143)">
<path fill-rule="evenodd" clip-rule="evenodd" d="M6.90711 15.5042C7.03156 15.3798 6.94514 15.4213 7.22169 15.4178L12.5004 15.4385C12.6767 15.8707 12.5592 23.3825 12.5592 24.5164C12.5592 25.5708 12.6249 33.1795 12.5108 33.5424C11.9127 33.6219 8.61137 33.5528 7.48787 33.5632C7.40145 33.5632 7.23206 33.5735 7.15601 33.5701C6.90366 33.5528 6.98662 33.6116 6.9002 33.4767L6.90711 15.5077V15.5042ZM21.6578 33.4837C21.5437 33.5666 21.8133 33.5597 21.4573 33.5632L16.0472 33.5355C15.9262 33.1034 15.9781 15.6598 16.0541 15.4247L21.4193 15.442C21.599 15.8568 21.4365 17.3191 21.4953 17.8999C21.599 17.81 21.6682 17.6648 21.7788 17.4954C21.879 17.3399 21.9793 17.2154 22.0864 17.084C23.8149 14.9995 27.0367 14.5501 29.5499 15.3729C31.1021 15.881 31.9283 16.6934 32.6058 17.9552C33.0587 18.8021 33.7328 21.5124 33.5116 22.6704L33.5841 23.0057C33.6982 24.6824 33.6256 33.3627 33.5634 33.5493L27.9805 33.5321C27.7178 32.6782 28.181 24.7135 27.8318 22.8087C27.9355 22.1553 27.3824 21.0699 27.0817 20.7276C26.6772 20.2679 25.9478 19.9498 25.0663 19.9395C23.2307 19.9187 22.2593 20.8141 21.8859 22.3939C21.4365 24.3055 21.7511 30.9394 21.6578 33.4837ZM9.02966 6.5439C10.9621 6.03227 12.573 7.54986 12.8876 9.01214C13.3024 10.9446 12.013 12.4725 10.4643 12.8701C6.50957 13.8864 4.58061 7.72271 9.02966 6.5439ZM0.0382173 21.0388C0.235262 23.9841 0.981956 26.6977 2.13657 28.9551C2.7519 30.1581 3.33612 31.1053 4.04479 32.0248C4.9021 33.1345 4.98161 33.1518 5.78016 34.0264L7.1007 35.264C7.32194 35.4541 7.54664 35.6131 7.79554 35.8136C8.23457 36.1697 8.74619 36.5257 9.25782 36.8507C12.6387 38.9905 16.7974 40.2247 21.0563 39.9654C26.2624 39.6508 29.7919 37.874 33.4251 34.8422C33.636 34.6659 33.84 34.4205 34.0543 34.2234L35.2919 32.9029C38.4619 29.1902 40.3079 23.9841 39.9898 18.9542C39.6268 13.2261 37.1206 8.28273 32.9308 4.71173C25.8994 -1.27911 15.2452 -1.61789 7.98221 4.01689C6.87254 4.87766 6.85872 4.95372 5.98066 5.75572C4.19689 7.38393 2.3025 10.3223 1.46592 12.5209C0.504901 15.0514 -0.165741 17.9448 0.0416742 21.0388H0.0382173Z" fill="#1D0E46"/>
<path fill-rule="evenodd" clip-rule="evenodd" d="M21.4988 17.8964C21.402 17.7996 21.4296 17.9932 21.3985 17.6337L21.4054 15.487H16.0714V33.4871L21.6578 33.4802C21.7511 30.9359 21.4331 24.3021 21.8859 22.3904C22.2593 20.8106 23.2272 19.9153 25.0663 19.936C25.9478 19.9464 26.6772 20.2644 27.0817 20.7242C27.3824 21.0664 27.9355 22.1519 27.8318 22.8053C27.9148 22.9055 27.9079 22.8191 27.9563 23.1337L28.0012 24.0532C28.0807 26.7392 28.022 30.7596 28.0081 33.4629H33.5392V23.9875C33.5392 23.552 33.4562 23.0887 33.5116 22.6635C33.7328 21.5055 33.0587 18.7952 32.6058 17.9483C31.9283 16.6865 31.1021 15.8741 29.5499 15.366C27.0367 14.5432 23.8184 14.9926 22.0864 17.0771C21.9758 17.2085 21.8756 17.333 21.7788 17.4885C21.6716 17.6579 21.599 17.8031 21.4953 17.893L21.4988 17.8964Z" fill="white"/>
<path fill-rule="evenodd" clip-rule="evenodd" d="M6.9002 33.4733L12.497 33.4906V15.4835L6.90711 15.5043L6.9002 33.4733Z" fill="white"/>
<path fill-rule="evenodd" clip-rule="evenodd" d="M9.02966 6.5439C4.58061 7.7227 6.50957 13.8864 10.4643 12.8701C12.0095 12.4725 13.3024 10.9411 12.8876 9.01214C12.573 7.54986 10.9621 6.03227 9.02966 6.5439Z" fill="white"/>
<path fill-rule="evenodd" clip-rule="evenodd" d="M6.9002 33.4733C6.98662 33.6115 6.90366 33.5493 7.15601 33.5666C7.23206 33.5735 7.40145 33.5597 7.48788 33.5597C8.61137 33.5493 11.9127 33.6184 12.5108 33.5389C12.6249 33.176 12.5592 25.5673 12.5592 24.5129C12.5592 23.3791 12.6767 15.8672 12.5004 15.4351L7.22169 15.4143C6.94168 15.4212 7.03156 15.3763 6.90711 15.5007L12.4935 15.48V33.4871L6.9002 33.4698V33.4733Z" fill="#808080"/>
<path fill-rule="evenodd" clip-rule="evenodd" d="M27.8318 22.8087C28.181 24.7134 27.7178 32.6782 27.9805 33.532L33.5634 33.5493C33.6291 33.3592 33.6982 24.6789 33.5842 23.0057L33.5116 22.6704C33.4562 23.0922 33.5392 23.5588 33.5392 23.9944V33.4698H28.0081C28.0185 30.7665 28.0807 26.7461 28.0012 24.0601L27.9563 23.1406C27.9079 22.8294 27.9148 22.9159 27.8318 22.8121V22.8087Z" fill="#A0A0A0"/>
<path fill-rule="evenodd" clip-rule="evenodd" d="M21.6578 33.4836L16.0714 33.4905V15.4904H21.4054L21.3985 17.6371C21.4262 17.9966 21.402 17.803 21.4988 17.8998C21.4365 17.3191 21.599 15.8568 21.4227 15.442L16.0576 15.4247C15.9781 15.6598 15.9297 33.1068 16.0507 33.5355L21.4607 33.5631C21.8168 33.5597 21.5506 33.5666 21.6612 33.4836H21.6578Z" fill="#808080"/>
</g>
<defs>
<clipPath id="clip0_1_143">
<rect width="40.0246" height="40" fill="white"/>
</clipPath>
</defs>
</svg>
