<svg width="41" height="40" viewBox="0 0 41 40" fill="none" xmlns="http://www.w3.org/2000/svg">
<g clip-path="url(#clip0_1_153)">
<path fill-rule="evenodd" clip-rule="evenodd" d="M10.9605 18.5108C10.8918 16.0353 10.9035 12.9519 13.2752 11.6513C14.4604 11.001 15.6149 10.9717 17.104 10.9001C19.0402 10.8051 24.098 10.7292 25.8253 11.2099C27.0893 11.5621 27.9545 12.2665 28.4616 13.1974C29.106 14.3811 29.1367 15.5165 29.2098 17.0027C29.2828 18.5225 29.3004 20.0511 29.2638 21.5767C29.2039 24.0128 29.3267 27.1474 26.9067 28.3969C25.6908 29.0252 24.6109 29.0618 23.0999 29.1363C21.5771 29.2108 20.053 29.2313 18.5273 29.1933C15.2714 29.1129 13.1013 29.0588 11.7335 26.8128C10.4972 24.7829 11.0321 21.0477 10.9619 18.5108H10.9605ZM0.0266579 20.9206C0.238553 25.1088 1.64875 28.8616 3.98106 32.002L5.41611 33.7308C5.53009 33.8462 5.6207 33.9091 5.72737 34.0201C6.08686 34.3971 6.58518 34.9072 7.00898 35.2491C8.76698 36.6666 10.2181 37.7056 12.4452 38.6014C15.3562 39.772 17.5818 40.0555 21.0364 39.9912C31.7905 39.7939 40.6638 30.3317 40.1509 19.0793C40.0164 16.123 39.2361 13.3917 38.0948 11.0916C37.5219 9.93565 36.0036 7.56096 35.0464 6.6067C33.7093 5.27249 33.8115 5.29441 32.4437 4.18963C26.5998 -0.531984 17.8829 -1.2875 11.149 2.04291C9.70808 2.75605 7.84779 3.99089 6.66994 5.09859C5.40588 6.28959 4.17835 7.68517 3.24601 9.15529C1.03206 12.6508 -0.199851 16.4942 0.0237352 20.9191L0.0266579 20.9206Z" fill="#1D0E46"/>
<path fill-rule="evenodd" clip-rule="evenodd" d="M15.3737 20.5699C15.0537 17.808 17.1653 15.5955 19.54 15.3135C22.2786 14.9876 24.5291 17.1197 24.798 19.4695C25.1136 22.2329 23.0107 24.444 20.6287 24.7231C17.8843 25.0446 15.6485 22.9315 15.3737 20.5699ZM24.6869 14.0918C26.2564 13.7133 26.5092 15.8556 25.3007 16.1961C23.8554 16.6038 23.2606 14.4352 24.6869 14.0918ZM15.875 12.6187C14.6708 12.7196 13.8832 13.1653 13.3571 13.8448C12.7491 14.6296 12.6615 15.6613 12.641 16.8566C12.6206 18.0739 12.6089 19.3015 12.6147 20.5217C12.6206 21.7039 12.5782 23.0732 12.6717 24.235C12.8792 26.8143 14.6504 27.4324 16.8701 27.4646C18.1094 27.4836 19.3486 27.4456 20.5864 27.4543C22.9669 27.4704 25.4278 27.8679 26.8088 26.1903C27.4795 25.3748 27.5014 24.422 27.5263 23.1887C27.5511 21.9684 27.5584 20.7409 27.557 19.5178C27.5555 18.3253 27.5804 16.9823 27.4971 15.803C27.4108 14.5755 26.9344 13.8317 26.2841 13.3187C25.4395 12.6524 24.5525 12.6129 23.3001 12.5895C21.6561 12.5603 17.3261 12.4989 15.8779 12.6202L15.875 12.6187Z" fill="#1D0E46"/>
<path fill-rule="evenodd" clip-rule="evenodd" d="M15.875 12.6172C17.3217 12.496 21.6531 12.5573 23.2972 12.5866C24.5495 12.6085 25.438 12.6494 26.2812 13.3158C26.933 13.8302 27.4079 14.5725 27.4941 15.8001C27.5774 16.9779 27.5511 18.3209 27.5541 19.5148C27.557 20.738 27.5482 21.9655 27.5234 23.1857C27.4985 24.4191 27.4766 25.3733 26.8058 26.1873C25.4263 27.8649 22.964 27.4675 20.5834 27.4514C19.3457 27.4426 18.1064 27.4806 16.8672 27.4616C14.6474 27.4295 12.8763 26.8113 12.6688 24.232C12.5753 23.0703 12.6176 21.701 12.6118 20.5188C12.6059 19.2985 12.6176 18.071 12.6381 16.8537C12.6585 15.6583 12.7462 14.6281 13.3541 13.8419C13.8802 13.1623 14.6679 12.7181 15.872 12.6158L15.875 12.6172ZM10.959 18.5109C11.0291 21.0478 10.4928 24.783 11.7306 26.8128C13.0984 29.0589 15.2685 29.1129 18.5244 29.1933C20.05 29.2313 21.5757 29.2108 23.097 29.1363C24.6094 29.0618 25.6879 29.0253 26.9038 28.3969C29.3238 27.1474 29.2025 24.0128 29.2609 21.5768C29.2989 20.0511 29.2799 18.524 29.2068 17.0028C29.1352 15.5166 29.1031 14.3811 28.4586 13.1974C27.953 12.2665 27.0879 11.5622 25.8224 11.21C24.095 10.7292 19.0373 10.8052 17.101 10.9002C15.6105 10.9732 14.4575 11.0025 13.2723 11.6513C10.902 12.9504 10.8903 16.0353 10.9575 18.5109H10.959Z" fill="#F7F7F7"/>
<path fill-rule="evenodd" clip-rule="evenodd" d="M19.4991 17.0436C21.3141 16.649 22.7901 18.0081 23.0706 19.4344C23.4301 21.2654 22.1398 22.68 20.7003 22.9971C18.8751 23.3975 17.3729 22.04 17.0937 20.5903C16.7386 18.7432 18.0378 17.3622 19.5006 17.0436H19.4991ZM15.3737 20.5684C15.647 22.9314 17.8829 25.0445 20.6287 24.7215C23.0107 24.4424 25.1151 22.2314 24.798 19.468C24.5291 17.1167 22.2786 14.986 19.54 15.3119C17.1653 15.594 15.0552 17.8064 15.3737 20.5684Z" fill="#F7F7F7"/>
<path fill-rule="evenodd" clip-rule="evenodd" d="M19.4991 17.0437C18.0363 17.3608 16.7372 18.7432 17.0923 20.5904C17.3714 22.04 18.8737 23.3976 20.6989 22.9972C22.1383 22.6816 23.4287 21.267 23.0692 19.4345C22.7901 18.0082 21.3126 16.6491 19.4977 17.0437H19.4991Z" fill="#1D0E46"/>
<path fill-rule="evenodd" clip-rule="evenodd" d="M24.6884 14.0903C23.2621 14.4337 23.8569 16.6024 25.3021 16.1946C26.5107 15.8542 26.2564 13.7118 24.6884 14.0903Z" fill="#F7F7F7"/>
</g>
<defs>
<clipPath id="clip0_1_153">
<rect width="40.1731" height="40" fill="white"/>
</clipPath>
</defs>
</svg>
