<svg width="41" height="40" viewBox="0 0 41 40" fill="none" xmlns="http://www.w3.org/2000/svg">
<path fill-rule="evenodd" clip-rule="evenodd" d="M13.1445 1.22689C12.9784 1.21458 11.5894 1.8557 11.3597 1.99521L10.6601 2.30807C10.5442 2.33885 9.76455 2.83328 9.68762 2.88149L8.84441 3.43953C8.84031 3.4426 8.80441 3.47543 8.78799 3.49082C8.74286 3.5298 8.6967 3.56673 8.64643 3.59853L8.3469 3.80471C8.28228 3.84472 8.24535 3.8519 8.1797 3.8919C8.17251 3.89601 8.16431 3.90216 8.15815 3.90626L8.0289 3.99551C8.00428 4.01397 7.94787 4.06731 7.90991 4.09398C7.86888 4.24272 7.74373 4.33197 7.60012 4.42942C7.34059 4.60688 6.71486 5.19261 6.45328 5.43778L5.82242 6.02864C5.77728 6.08813 5.73317 6.12609 5.67983 6.17738C5.45929 6.38972 5.57623 6.40408 5.35671 6.46152C5.23156 6.4923 5.30644 6.48614 5.24284 6.56308L4.88279 6.96006C4.78739 7.08828 4.4735 7.39192 4.47862 7.53143C4.44067 7.72735 4.47144 7.62888 4.35758 7.77249C4.35245 7.77864 4.34732 7.7889 4.34219 7.79403C4.29706 7.85147 4.31552 7.82993 4.26116 7.88533L3.36871 9.15116C3.24767 9.29785 3.37487 9.19116 3.2251 9.22809L2.76247 9.91332L1.59511 12.2378C1.56742 12.2983 1.56024 12.3352 1.53151 12.3937C1.50587 12.446 1.48433 12.4645 1.46484 12.5014L0.952964 13.9252C0.907829 14.1273 0.774476 14.315 0.696515 14.8587L0.462634 15.7809C0.347745 16.2394 0.404164 16.1348 0.350822 16.4712C0.321074 16.66 0.249268 16.8692 0.227727 17.0949C0.215417 17.2252 0.221572 17.3452 0.201056 17.4745C0.144637 17.8427 0.09027 18.1064 0.0748831 18.5033H0V22.0752C0.116941 22.1172 0.055393 22.0844 0.0882184 22.2013L0.126173 22.6701C0.146689 22.9635 0.259526 23.4723 0.336461 23.7708C0.388777 23.9708 0.347745 24.1432 0.417499 24.3473C0.552904 24.7494 0.724212 25.6839 0.840127 25.9363C1.02272 26.3343 0.89552 26.2317 0.979635 26.4502C1.22685 27.0933 1.44535 27.7334 1.72744 28.3623L2.2906 29.4506C2.33881 29.5337 2.36754 29.5624 2.40549 29.6568C2.43934 29.7389 2.45986 29.8045 2.50499 29.8917C2.55013 29.9799 2.59116 29.9861 2.59219 30.0794C2.64963 30.1153 2.68451 30.0897 2.75324 30.2487C2.88556 30.5544 2.96352 30.6395 3.17073 30.9124C3.22408 30.9821 3.18304 30.9103 3.2251 30.9965C3.25382 31.056 3.23023 31.0365 3.27126 31.1011C3.35948 31.2386 3.53592 31.4509 3.58721 31.6479C3.63439 31.6951 3.67645 31.7279 3.74723 31.8438C3.9052 32.1074 3.97701 32.1546 4.18525 32.4511C4.32988 32.4695 4.39964 32.6255 4.48375 32.7321C4.56377 32.8327 4.68276 32.9363 4.71661 33.1076C4.98126 33.3651 4.89817 33.4092 5.19258 33.6431C5.27875 33.7118 5.35158 33.8174 5.43569 33.9036C5.53827 34.0082 5.5475 34.0739 5.66855 34.1734C5.86242 34.3334 6.00603 34.5129 6.17324 34.6771L6.45123 34.9048C6.55791 35.0012 6.56509 35.0843 6.68614 35.1387L6.92002 35.2659C6.94566 35.2864 6.96515 35.3048 6.99695 35.3305L7.33752 35.6362C7.45548 35.7562 7.37034 35.6403 7.39599 35.7582C7.49959 35.7808 7.39291 35.7357 7.51908 35.8065C7.77246 35.948 7.76117 36.028 7.91299 36.0711L7.93453 36.1942C8.0248 36.224 7.98479 36.2137 8.05763 36.2824C8.07199 36.2958 8.16944 36.385 8.17149 36.386C8.22381 36.425 8.3746 36.5327 8.41871 36.543C8.53052 36.5573 9.43937 37.1585 9.56247 37.2559C9.56862 37.261 9.57683 37.2682 9.58401 37.2733C9.59017 37.2785 9.59837 37.2867 9.60453 37.2918C9.61068 37.2969 9.61786 37.3041 9.62402 37.3092L11.0622 38.0714C11.1371 38.1145 11.1258 38.1022 11.1996 38.1483C11.6807 38.4458 12.1495 38.5648 12.2952 38.6664L12.3885 38.7228C12.487 38.7792 12.5619 38.8038 12.6727 38.8613C12.885 38.971 12.9117 38.8736 12.9979 39.0469H13.0338C13.3025 39.0582 13.2246 39.1147 13.4318 39.1639L13.9518 39.3239C14.0503 39.3578 14.0052 39.3588 14.116 39.4008C14.1847 39.4265 14.2298 39.4337 14.3057 39.4644C14.3878 39.4983 14.3786 39.5034 14.4894 39.5291C14.7951 39.6009 15.8414 39.9107 16.0568 39.8912C16.3799 39.8378 16.5912 40.0256 16.9944 39.9917L16.9913 23.1769C16.4312 23.103 15.3705 23.1646 14.7602 23.1646C14.4976 23.1646 13.879 23.26 13.7908 23.0353C13.7426 22.9132 13.7508 17.8243 13.7785 17.4386C14.0134 17.2857 14.9274 17.3575 15.3008 17.3575C15.8619 17.3575 16.423 17.3565 16.9831 17.3606C16.982 16.8262 16.9882 16.2907 16.9851 15.7573C16.9831 15.429 17.0559 15.3777 17.0867 15.1018C17.1267 14.7428 17.1452 14.0104 17.2795 13.7016C17.3534 13.5323 17.3206 13.5559 17.3452 13.361C17.3626 13.2205 17.3985 13.2051 17.4293 13.0759C17.4908 12.8215 17.5298 12.6748 17.6006 12.4347L17.7258 12.0018C17.7504 11.9485 17.736 11.9721 17.775 11.9321C17.8376 11.8664 17.7555 11.9331 17.855 11.8716L18.1658 11.1053C18.2622 10.9196 18.1463 10.933 18.3412 10.8468C18.3976 10.5698 18.9003 9.84152 19.0901 9.53993L19.6091 8.87317C19.6378 8.68339 19.7261 8.67314 19.8902 8.5008C19.9374 8.45156 19.9876 8.39822 20.0471 8.3377C20.1487 8.23615 20.1046 8.24641 20.2605 8.22589C20.4605 8.11305 20.7765 7.753 21.0391 7.59913L21.4638 7.3078C21.7859 7.07597 22.5531 6.72618 22.9194 6.5959C22.9665 6.57846 22.9953 6.56102 23.0404 6.54153L23.4169 6.38048C23.7851 6.25021 24.6806 6.10044 25.134 5.94042L26.4255 5.80091C26.9076 5.79988 27.3857 5.80091 27.8668 5.80296C28.1519 5.80399 28.2196 5.85733 28.514 5.86964C28.7172 5.87784 28.9705 5.92195 29.1511 5.91375C29.425 5.87784 30.8816 6.1507 31.019 6.27175C31.1893 6.43588 30.8929 10.0857 30.8621 10.7935C30.7852 12.5568 30.9719 12.2901 29.904 12.0408C29.3942 11.9218 28.0432 11.8264 27.6165 11.9413C27.4739 11.9793 27.4031 12.0193 27.2072 12.0059C27.1579 12.0901 27.3108 11.9916 27.122 12.0993C27.0523 12.1393 26.9323 12.1331 26.7928 12.206C26.3906 12.4142 25.9157 12.7178 25.6736 13.1015C25.6695 13.1077 25.6654 13.1179 25.6603 13.1241L25.5608 13.282C25.5423 13.3302 25.5464 13.3579 25.529 13.3938C25.5074 13.439 25.4202 13.5077 25.3843 13.5611C25.2941 13.6944 25.2202 13.8267 25.1956 13.997L24.9073 14.6074L24.9268 14.6186C24.9463 14.9079 24.8591 14.9849 24.8376 15.2536C24.8037 15.6691 24.8181 16.9205 24.8202 17.3647C25.6223 17.3893 29.2824 17.3001 29.7091 17.416C29.786 18.5198 29.7101 21.3961 29.7235 22.745C29.7286 23.2764 29.508 23.1553 28.8382 23.1563C27.7703 23.1574 25.6798 23.101 24.8366 23.1635L24.8314 39.7763C25.1033 39.765 25.3679 39.5916 25.7721 39.5793C26.008 39.5978 26.5897 39.366 26.8153 39.2624C26.882 39.2316 26.9825 39.2152 27.0943 39.1793C27.1744 39.1547 27.2256 39.1116 27.3139 39.0787L28.1007 38.8141C28.2863 38.7454 28.4186 38.5956 28.7808 38.4602L29.2588 38.2489C29.3737 38.2048 29.6886 38.134 29.7153 38.0499C29.7183 37.9534 29.666 37.9894 29.9389 37.8437C30.0261 37.7975 30.1102 37.7534 30.1984 37.7052C30.262 37.6714 30.3666 37.5965 30.4374 37.5524C30.5851 37.459 30.5923 37.5216 30.6764 37.3975L30.8159 37.3923C30.9021 37.379 31.5781 36.8938 31.7227 36.7851L32.2428 36.4722C32.3074 36.3635 32.2018 36.4784 32.3136 36.3645L32.9506 35.8516C32.9865 35.8177 32.9886 35.8198 33.0265 35.7849C33.1096 35.709 33.0286 35.7695 33.1229 35.7018C33.3486 35.5398 33.5015 35.3459 33.7015 35.2751C33.7487 35.0617 33.8102 35.1582 33.8861 34.9879L34.0133 34.9715L34.1118 34.8904C34.119 34.7643 34.16 34.7601 34.2329 34.6853C34.2421 34.675 34.3047 34.6124 34.3057 34.6114L34.4914 34.4422C34.5006 34.435 34.5273 34.4124 34.5355 34.4052C34.675 34.2873 35.1448 33.7097 35.2679 33.6718C35.2853 33.5897 36.0342 32.7414 36.2588 32.4367C36.3511 32.3105 36.2906 32.3105 36.4373 32.2828L36.8486 31.6899C36.9543 31.5638 36.8835 31.572 37.0487 31.4961C37.0497 31.3545 37.0979 31.4448 37.1164 31.3114C37.1441 31.1268 37.499 30.6416 37.6108 30.4405C37.7421 30.2056 37.8765 30.0415 37.976 29.7973C38.0663 29.5768 38.0929 29.6086 38.1576 29.5706C38.2027 29.5347 38.1924 29.5276 38.2263 29.4701L38.5679 28.7982C38.6171 28.7172 38.6674 28.5808 38.6899 28.5233C38.7669 28.3253 38.8366 28.1335 38.9156 27.955L39.2603 27.1118C39.4849 26.5579 39.3516 26.8359 39.4521 26.5107L39.7188 25.7752C39.806 25.5895 39.8676 25.2244 39.8942 25.0141C39.9127 24.7166 40.1076 24.0785 40.1496 23.6046C40.1732 23.3369 40.244 23.2312 40.2563 22.8835C40.2717 22.4342 40.2615 22.665 40.3261 22.3378C40.3435 22.2516 40.3271 22.2465 40.3579 22.1767V17.3565C40.2738 17.2396 40.2789 17.1195 40.2697 16.9811L39.9158 15.2505C39.8829 15.0679 39.846 15.0485 39.8173 14.9223C39.7896 14.8002 39.8029 14.6751 39.7773 14.553L39.7116 14.3796C39.7086 14.3725 39.7024 14.3632 39.6993 14.355C39.5547 14.036 39.4203 13.7324 39.3198 13.3764C39.1916 12.9199 38.8069 12.088 38.6027 11.6059C38.5084 11.3833 38.4253 11.2438 38.335 11.0458L37.6641 9.84767C37.6344 9.79125 37.6272 9.7574 37.5975 9.69585L37.1328 8.93266C37.101 8.88445 37.1287 8.92548 37.0887 8.87214L36.5891 8.21973C36.544 8.15613 36.4783 8.06792 36.4424 8.01458C36.3634 7.97457 36.4004 8.02894 36.306 7.92431L35.9008 7.39192C35.8567 7.3078 35.8844 7.36935 35.8505 7.26062L35.1807 6.49742C35.0843 6.38253 34.6863 5.90451 34.5888 5.86553C34.4329 5.83476 34.5755 5.90554 34.439 5.79578C34.3057 5.68807 33.879 5.2798 33.8615 5.18235C33.8133 5.16697 33.6482 4.97207 33.5917 4.91462C33.5086 4.83051 33.3979 4.70433 33.285 4.68177C33.1076 4.63663 33.2553 4.71357 33.1168 4.59765L32.7752 4.32992C32.6808 4.26529 32.6213 4.19759 32.5434 4.13194L31.6273 3.46107C31.4899 3.35541 31.4129 3.39747 31.374 3.24257C31.2201 3.20565 31.1226 3.04357 30.9954 3.01074C30.86 2.9892 30.5769 2.80866 30.4528 2.72557C30.1266 2.50708 30.0712 2.59119 29.9891 2.39732L29.7255 2.26294C29.6301 2.22088 29.5337 2.17472 29.4291 2.12651L28.8751 1.85672C28.6176 1.85262 28.5376 1.76953 28.2976 1.64336L27.9334 1.4977C27.8463 1.47102 27.8011 1.48846 27.7232 1.45256C27.6185 1.40537 27.7201 1.42589 27.5754 1.36434C27.4431 1.30792 27.5262 1.37973 27.4236 1.28125C27.3005 1.28125 27.4113 1.29869 27.3631 1.20021C27.3118 1.16636 27.1631 1.10584 27.0728 1.07404C26.8964 1.01147 26.96 1.01044 26.7281 0.952998C26.5496 0.908889 26.1496 0.74271 26.0111 0.760148C25.9178 0.765277 25.2869 0.627821 25.1987 0.592944L23.6928 0.261612C23.3994 0.230838 23.2291 0.16929 22.8927 0.146723C22.5593 0.124155 22.4013 0.05953 22.0731 0.0441431C21.7725 0.0297819 21.472 0.0226014 21.1714 0.0123434C19.365 -0.0481785 18.4982 0.00618863 16.8005 0.265715L15.6824 0.500622C15.3182 0.544731 15.4495 0.56217 15.3254 0.607305L13.8688 0.999159C13.6769 1.06686 13.3815 1.2115 13.1507 1.21663L13.1445 1.22689Z" fill="#1D0E46"/>
</svg>
