<svg xmlns="http://www.w3.org/2000/svg" viewBox="0 0 279 26.7"><title>logonodisdark</title><rect x="2.56" y="3.63" width="28.5" height="18.81" fill="#fff"/><path d="M152.5,1.37h-4s-3.9,0-6.2,5.3l-7,13.3V1.37H124.7v19.9s0,6.6,6.6,6.6h4s3.5,0.1,6.3-5.3l7-13.3v18.6h10.6V8s0-6.6-6.7-6.6h0Zm47.8,0H195s-3,0-5.3,5.3l-4,9.3c-1.3,3.1-2.6,0-2.6,0l-4-9.3c-2.3-5.3-5.3-5.3-5.3-5.3h-5.3c-6.6,0-6.6,6.6-6.6,6.6v19.9h10.6V9.07l5.3,12c2.4,5.4,6.6,5.5,6.6,5.5s4.3,0,6.7-5.5l5.2-11.8v18.6h10.6V8s0-6.6-6.6-6.6h0Zm-88.9,18.5a2.64,2.64,0,0,1-2.58,2.7H100.7A2.64,2.64,0,0,1,98,20s0-.08,0-0.12V9.27a2.64,2.64,0,0,1,2.58-2.7h8.12a2.64,2.64,0,0,1,2.7,2.58s0,0.08,0,.12v10.6h0Zm-0.2-18.5H98.8c-10.8,0-11.2,7.9-11.2,7.9V12H84.9V1.37H74.3v26.5H84.9V17.27h2.7v2.9s0,7.7,10.8,7.7h12.4c10.8,0,11.2-8,11.2-8V9.07s0-7.7-10.8-7.7h0ZM61.1,19.77a2.86,2.86,0,0,1-2.7,2.8H47.8V6.67H58.4s2.7,0,2.7,2.5v10.6h0Zm0-18.4H37.2v26.5H61.1c10.6,0,10.6-8,10.6-8V9.17s0-7.8-10.6-7.8h0Z" transform="translate(0 -1.17)" fill="#fff"/><path d="M30.2,9.87l-0.6.9-2.4,4-3,5v2.8H15.6v-2.8l3-5,3-4.9V6.67h8.5l0.1,3.2h0ZM12.8,22.57H4.3v-2.8l0.6-1,2.4-4,3-4.9V6.67h8.4v3.4l-2.9,4.7-3,5v2.8h0Zm11-21.2H10.6C0,1.37,0,9.27,0,9.27V20s0,8,10.6,7.9H23.9c10.6,0,10.6-7.9,10.6-7.9V9.27c-0.1,0-.1-7.9-10.7-7.9h0Z" transform="translate(0 -1.17)" fill="#fabc20"/><path d="M275.4,17.07V7.87s0-5.8-5.5-6.6c-0.4,0-.7-0.1-1.1-0.1h-4a5.79,5.79,0,0,0-3.2,1.3h-0.1c-0.2.2-.4,0.3-0.6,0.5l-0.4.3L254,9l-7.2,6.2a3.34,3.34,0,0,0-1.2,2.8v1.5a3.8,3.8,0,0,0,3.59,4H264.8v4.2h10.6v-4.2H279V17Zm-10.6-.5v0.6H253.3l4.5-3.8,3.8-3.3,3.2-2.7v9.2Z" transform="translate(0 -1.17)" fill="#fabb20"/><path d="M219.4,21.07a5.53,5.53,0,0,1,3.1-1.3c2.5-.5,8-0.5,12.2-1.4a16.47,16.47,0,0,0,5.9-2.3c1.8-1.3,2.6-3.2,2.6-5.8,0-5.7-3-8.9-15.9-8.9s-16,2.7-16.3,9.7h11.3V9.17a2.58,2.58,0,0,1,2.46-2.7h5A2.58,2.58,0,0,1,232.4,9s0,0.1,0,.14v1.3h0a3.43,3.43,0,0,1-3.3,3.2l-11.8,1.1h0c-7.1,1.6-7.4,7.5-7.4,7.5v5.4H243V21h-9.5l-14.1.1h0Z" transform="translate(0 -1.17)" fill="#fabb20"/><path d="M138.3,10.77c1-2,5-9.4,5-9.4h-6.4v9.4C136.9,10.67,137.2,12.77,138.3,10.77Z" transform="translate(0 -1.17)" fill="#fff"/></svg>